<?xml version="1.0" encoding="UTF-8"?><svg id="Layer_1" xmlns="http://www.w3.org/2000/svg" viewBox="0 0 50 50"><defs><style>.cls-1{fill:#302e2e;}</style></defs><path class="cls-1" d="m8.92,10.09c3.91-3.31,8.87-5.5,14.31-6.02h.11c6.74,0,12.94,2.3,17.87,6.14l-.07-.05c.33.24.74.38,1.18.38,1.12,0,2.03-.91,2.03-2.03,0-.68-.34-1.28-.85-1.65h0C38.06,2.58,31.12,0,23.57,0c-.16,0-.33,0-.49,0h.02c-6.43.58-12.18,3.09-16.77,6.95l.05-.04c-.47.38-.77.95-.77,1.59,0,1.12.91,2.03,2.03,2.03.48,0,.93-.17,1.28-.45h0Zm37.09,6.79c-6.93-7.61-14.02-11.47-21.08-11.47h-.07c-7.04.03-14.06,3.89-20.87,11.48-.32.36-.52.84-.52,1.36,0,1.12.91,2.03,2.03,2.03.6,0,1.14-.26,1.51-.67h0c6.01-6.7,12.02-10.11,17.86-10.13h.06c5.87,0,11.95,3.41,18.08,10.14.37.41.91.66,1.5.66,1.12,0,2.03-.91,2.03-2.03,0-.53-.2-1.01-.53-1.37h0Zm-9.95,26.07c-2.56-.68-4.73-2.11-6.3-4.04l-.02-.02c-1.58-2.09-2.59-4.69-2.74-7.52v-.03c-.12-1.03-.99-1.83-2.05-1.83-.07,0-.13,0-.19,0h0c-1.03.11-1.83.97-1.83,2.02,0,.07,0,.14.01.21h0c.24,3.68,1.56,7.01,3.65,9.73l-.03-.04c2.13,2.62,5.03,4.55,8.36,5.43l.11.03c.15.04.32.06.5.06h0c1.12,0,2.03-.91,2.03-2.03,0-.94-.64-1.74-1.51-1.97h-.01s0,0,0,0Zm-4.12-29.77c-2.12-.85-4.58-1.34-7.16-1.34-.99,0-1.97.07-2.93.21h.11c-3.63.6-6.83,2.14-9.45,4.34l.03-.02c-3.78,3.1-6.49,7.38-7.56,12.28l-.03.14c-.15.73-.28,1.46-.39,2.35-.05.54-.08,1.17-.08,1.81,0,5.01,1.71,9.62,4.58,13.28l-.04-.05c.38.47.95.76,1.59.76,1.12,0,2.03-.91,2.03-2.03,0-.49-.17-.93-.46-1.28h0c-2.28-2.89-3.66-6.6-3.66-10.62,0-.53.02-1.05.07-1.57v.07c.07-.63.18-1.25.31-1.86.9-4.11,3.11-7.61,6.17-10.11l.03-.02c2.04-1.73,4.57-2.96,7.36-3.44h.09c.66-.11,1.42-.17,2.2-.17,2.06,0,4.02.39,5.82,1.11l-.11-.04c4.82,1.86,8.5,5.73,10.06,10.55l.03.12c.83,2.69,1.04,7.49-.52,9.19-.21.23-.74.84-2.42.48-1.06-.29-1.97-.82-2.7-1.55-.52-.42-.93-.94-1.2-1.54v-.03c-.16-.52-.24-1.11-.24-1.73,0-.04,0-.08,0-.13h0c0-1-.13-1.95-.39-2.86l.02.07c-.93-2.54-3.01-4.46-5.59-5.16h-.06c-.83-.32-1.78-.49-2.78-.49-.63,0-1.24.07-1.83.2h.06c-1.65.47-3.04,1.39-4.08,2.62h0c-1.2,1.26-2.07,2.85-2.44,4.62v.06c-.03.28-.04.6-.04.93,0,3.82,1.51,7.3,3.96,9.85h0c2.25,2.69,4.69,5.09,7.34,7.24l.1.08c.35.3.81.48,1.32.48,1.12,0,2.03-.91,2.03-2.03,0-.62-.28-1.18-.72-1.55h0c-2.54-2.05-4.79-4.26-6.81-6.67l-.06-.07c-1.93-1.87-3.12-4.48-3.12-7.38,0-.05,0-.1,0-.15h0c.25-1.04.76-1.94,1.47-2.66h0c.53-.65,1.23-1.15,2.04-1.42h.03c.23-.05.5-.08.78-.08.55,0,1.08.1,1.57.29h-.03c1.36.31,2.45,1.24,3,2.46v.03c.13.5.21,1.07.21,1.67v.09h0v.08c0,1.08.17,2.11.49,3.08l-.02-.07c.52,1.26,1.3,2.33,2.28,3.17h.01c1.24,1.2,2.79,2.08,4.51,2.51h.07c.52.17,1.12.26,1.74.26,1.78,0,3.39-.75,4.52-1.96h0c2.98-3.25,2.44-9.79,1.4-13.14-1.99-6.14-6.56-10.95-12.4-13.22l-.14-.05h0Zm-17.07,19.21c.08-3.11,1.56-5.87,3.82-7.68l.02-.02c.87-.74,1.88-1.37,2.96-1.84l.08-.03c1.21-.53,2.62-.84,4.09-.84,1.65,0,3.2.38,4.59,1.06l-.06-.03c3.18,1.98,5.26,5.45,5.26,9.41,0,.18,0,.37-.01.55v-.03s0,0,0,.01c0,1.07.86,1.93,1.93,1.93.07,0,.13,0,.2,0h0c1.08-.05,1.94-.94,1.94-2.03,0-.03,0-.06,0-.1h0c0-.15,0-.34,0-.53,0-5.48-2.98-10.26-7.41-12.81l-.07-.04c-1.86-.92-4.05-1.47-6.37-1.47-2.04,0-3.99.42-5.75,1.18l.09-.04c-1.57.67-2.92,1.51-4.11,2.53l.02-.02c-3.14,2.55-5.16,6.36-5.28,10.65v.02c.2,6.64,3.13,12.56,7.7,16.69l.02.02c.36.35.86.56,1.4.56,1.12,0,2.03-.91,2.03-2.03,0-.58-.24-1.1-.63-1.47-3.8-3.38-6.24-8.2-6.47-13.6v-.04h0Z"/></svg>