<svg id="Layer_1" data-name="Layer 1" xmlns="http://www.w3.org/2000/svg" viewBox="0 0 276.7 138.4"><defs><style>.cls-1{fill:#2ec3e7;}</style></defs><g id="S"><path class="cls-1" d="M219.7,87.8a1.1,1.1,0,1,0-1-1.9,1.1,1.1,0,0,0-.6,1.4A1.4,1.4,0,0,0,219.7,87.8Z" transform="translate(0 0)"/><path class="cls-1" d="M225,68.6H190a17.1,17.1,0,0,0-17.1,17.1v35A17.2,17.2,0,0,0,190,137.8h35a17.1,17.1,0,0,0,17.1-17.1v-35A17,17,0,0,0,225,68.6Zm.8,38.5c0,7.2-5.2,12.2-13.6,13.2-.1,1.7-.2,4.8.1,5.2a3.9,3.9,0,0,0,3.1.4c.1-.1.3,0,.4.2s-.1.3-.2.3l-1.3.2a3.6,3.6,0,0,1-2.4-.7c-.5-.4-.4-2.2-.2-5.5l-2.9.2a28.1,28.1,0,0,1-5.9-.6v.2c0,1.9-.1,5.1.3,5.6s2,.4,3,.2.3.1.3.2a.5.5,0,0,1-.2.4h-1.6a2.5,2.5,0,0,1-2-.6c-.4-.6-.4-2.9-.4-5.9v-.3a27.1,27.1,0,0,1-12.6-5.8,1.2,1.2,0,0,1-.5-1,1.5,1.5,0,0,1,.4-1.1l5.9-6.8a1.7,1.7,0,0,1,2-.2,18.6,18.6,0,0,0,11.6,4.2c1.5,0,3-.4,3-1.1h0q0-.9-5.4-2.1c-7.9-1.7-15.7-4.1-15.7-12.9h0c0-8,6.6-13.3,16.4-13.3,6.7,0,12.2,1.7,16.8,5.2a1.6,1.6,0,0,1,.3,2.1l-5.4,7.2a1.5,1.5,0,0,1-2,.3,18.2,18.2,0,0,0-9.9-3.4c-1.6,0-2.4.5-2.4.9h0c0,.5.4,1,5.5,2.1,8.1,1.7,15.5,4.4,15.5,12.9Z" transform="translate(0 0)"/></g><g id="O"><path class="cls-1" d="M130.5,85.9c-.6.8-.7,1.7-.1,2.2a1.5,1.5,0,0,0,2.1-.4,1.7,1.7,0,0,0,.2-2.2A1.6,1.6,0,0,0,130.5,85.9Z" transform="translate(0 0)"/><path class="cls-1" d="M141.1,89.9h-.4a6.8,6.8,0,0,0-2.1,6.5,14.7,14.7,0,0,0,4,7.1c.9.8,3.5-.3,3.6-3a15.5,15.5,0,0,0-2.5-9.5A5.2,5.2,0,0,0,141.1,89.9Z" transform="translate(0 0)"/><path class="cls-1" d="M155.8,68.6h-35a17.1,17.1,0,0,0-17.1,17.1v35a17.2,17.2,0,0,0,17.1,17.1h35a17.1,17.1,0,0,0,17.1-17.1v-35A17,17,0,0,0,155.8,68.6Zm1.4,50.5c-1.9,1.7-2.7,1.9-3,1.9H154l-5.9-6.1a12.1,12.1,0,0,1-3,2c-5,2.6-13.6,2.2-17.6.3-1,2.2-2.4,5.9-2.8,7.2s-.2.8.8,1.3l1.4.7c.1.1.2.3.1.4l-.3.2a.1.1,0,0,1-.1-.1l-1.4-.7c-1-.4-1.6-.7-1.1-2a76.5,76.5,0,0,1,2.9-7.3,2.7,2.7,0,0,1-1-.8c-2.6-2.7-5.7-5.2-6.7-12.2h1.4c0-3-1.4-9.9,3.5-16.6s13.3-9.5,20-6.6S156,92,155.1,99.6c-.8,5.9-2.9,11.3-6.6,14.8l5.8,6a7.4,7.4,0,0,0,2.5-1.8h.5C157.4,118.8,157.4,119,157.2,119.1Z" transform="translate(0 0)"/></g><g id="M0"><path class="cls-1" d="M81.2,84.6A1.1,1.1,0,0,0,80,85.7a1.2,1.2,0,0,0,2.4,0A1.1,1.1,0,0,0,81.2,84.6Z" transform="translate(0 0)"/><path class="cls-1" d="M57.6,84a1.1,1.1,0,1,0,0,2.2,1.1,1.1,0,1,0,0-2.2Z" transform="translate(0 0)"/><path class="cls-1" d="M86.7,69.2H51.6A17.1,17.1,0,0,0,34.5,86.3v35a17.2,17.2,0,0,0,17.1,17.1H86.7a17.1,17.1,0,0,0,17-17.1v-35A17,17,0,0,0,86.7,69.2ZM99.8,95.8h-.5c-1.2-.9-3.6-1.7-7.1-2.1.1,1.2.1,2.3.1,3.2V98l1.6.6c.2,0,.3.2.2.4l-.3.2a.1.1,0,0,1-.1-.1l-1.4-.4c-.2,6.1-.9,21.8-.9,21.8H83.5v5.6a1.9,1.9,0,0,0,.7,1.4,2.9,2.9,0,0,0,2.6.5c.1-.1.3,0,.3.2s-.1.3-.2.4H85.7a2.7,2.7,0,0,1-2-.7,2.6,2.6,0,0,1-.9-1.9v-5.6H81.4c-.6-9-.7-17.5-.5-21.7,0-.7-1.6-.6-1.7.1-.4,4.2-.7,12.6-.6,21.6l-18.4.2c-.6-10.8-1.2-18.9-1.8-22.1-.1-.5-1.1-.4-1.1.1.3,3.2.5,11.4.2,22.1H53.9v4.7a2.8,2.8,0,0,1-.9,2,3.5,3.5,0,0,1-2.1.6H50a.3.3,0,0,1-.3-.3c0-.2.2-.3.4-.3a2.8,2.8,0,0,0,2.5-.4,2.1,2.1,0,0,0,.7-1.5V121H47s-.7.2-.7-1.6,0-12-.1-20.6l-2.7.9h-.1c-.2,0-.3,0-.3-.2s0-.3.2-.4l2.9-.9V94a38.9,38.9,0,0,0-7.3,2h-.1c-.2,0-.3,0-.3-.2s0-.3.2-.4a39,39,0,0,1,7.5-2V88.5c.2-3.7,1.1-5.2,2.1-6.3a13.4,13.4,0,0,1,14.2-2.4c6,2.3,6.6,10,6.6,10,.6-6,8.8-11.6,17.1-6.8,4.3,2.4,5.6,6.7,6,10,3.3.5,6.1,1.2,7.5,2.4S99.9,95.7,99.8,95.8Z" transform="translate(0 0)"/></g><g id="I0"><path class="cls-1" d="M248.5,10.7a.4.4,0,0,0-.6,0c-.9.3-2.2,2.1-2.8,4.1h4C249.3,13.5,249.4,11.5,248.5,10.7Z" transform="translate(0 0)"/><path class="cls-1" d="M243.2,14.6c0-1.4-.5-3.9-1-4.4h-.1c-.2,0-.7,1.2-.7,4.4h1.8Z" transform="translate(0 0)"/><path class="cls-1" d="M238.8,19.2a1,1,0,0,0-1.1,1,1.1,1.1,0,0,0,2.2,0A1,1,0,0,0,238.8,19.2Z" transform="translate(0 0)"/><path class="cls-1" d="M259.6,0H224.5a17,17,0,0,0-17,17.1v35a17.1,17.1,0,0,0,17,17.1h35.1a17.2,17.2,0,0,0,17.1-17.1v-35A17.1,17.1,0,0,0,259.6,0ZM249.1,47.2a9.4,9.4,0,0,1-3.9,3.8,3.1,3.1,0,0,0-.1,1c0,3-.1,5.5-1,6.1a3.1,3.1,0,0,1-1.3.3,5,5,0,0,1-1.4-.3c-.1-.1-.2-.3-.1-.4a.2.2,0,0,1,.4-.1,2.3,2.3,0,0,0,2.1,0c.7-.4.8-4,.8-5.7v-.6a14.1,14.1,0,0,1-5.4.7,5,5,0,0,1-1.9-.3V52c0,3-.1,5.5-1,6.1l-1.3.3a3.4,3.4,0,0,1-1.4-.3.4.4,0,0,1-.2-.4.2.2,0,0,1,.4-.1,2.5,2.5,0,0,0,2.2,0c.7-.4.7-4,.7-5.7v-.4c-2.7-1-3.1-3.3-3.3-5s-.9-28.5-.9-30.8,1-1.5,1-1.5l5.1.3h2.2c0-1.6.1-4.5,1.1-4.9s.3-.2.6.1,1.3,3.5,1.2,4.8h.9c.5-2.1,1.9-4.2,3.1-4.6a1.2,1.2,0,0,1,1.2.2c1,.9,1,2.8.7,4.6h.8s-.4,6.8-.4,11.5S251.5,43.1,249.1,47.2Z" transform="translate(0 0)"/></g><g id="N"><path class="cls-1" d="M166.1,20.3c-.6-.1-.5.1-.6.6a1.1,1.1,0,0,0-.5.4.8.8,0,0,0-.2.7,1.2,1.2,0,0,0,.5,1c.4.5.4,0,.8,0s.3-.2.8-.4a1,1,0,0,0,.5-.8c.1-.4-.1-.3-.3-1.2S166.6,20.4,166.1,20.3Z" transform="translate(0 0)"/><path class="cls-1" d="M190.5,0H155.4a17,17,0,0,0-17,17.1v35a17.1,17.1,0,0,0,17,17.1h35.1a17.2,17.2,0,0,0,17.1-17.1v-35A17.1,17.1,0,0,0,190.5,0Zm-.1,49.2h-6.9v5.3a2.6,2.6,0,0,1-.8,1.8,2.9,2.9,0,0,1-1.9.6h-1c-.2,0-.3-.2-.2-.3a.3.3,0,0,1,.3-.3,3,3,0,0,0,2.4-.3,2.2,2.2,0,0,0,.6-1.4V49.2h-5.1c0-9.5-1.4-17.4-1.4-24,0-2.2-3.5-2.5-3.6-.2-.4,6.7.7,14.6.1,24.2h-3.5v5.3a2.6,2.6,0,0,1-.8,1.8,2.9,2.9,0,0,1-1.9.6h-1c-.2,0-.3-.2-.2-.3a.3.3,0,0,1,.3-.3,3,3,0,0,0,2.4-.3,2.2,2.2,0,0,0,.6-1.4V49.2h-9s-.8-9.5-.8-10.7S159,25.3,159,22V10.9l1.5.3,1.4.3,1.9.4s2.8,2.6,3.1,2.7,2-1.9,2-1.9c3-3.3,8.6-2.3,9.8-2.1a22.4,22.4,0,0,1,4.6,1.8,13.1,13.1,0,0,1,7.6,11.5s.5,20.4.6,22.9S190.4,49.2,190.4,49.2Z" transform="translate(0 0)"/></g><g id="I"><path class="cls-1" d="M103.8,10.4h-.1c-.2,0-.7,1.2-.7,4.3h1.8a.1.1,0,0,0-.1-.1C104.8,13.3,104.3,10.9,103.8,10.4Z" transform="translate(0 0)"/><ellipse class="cls-1" cx="100.5" cy="20.1" rx="1.1" ry="1"/><path class="cls-1" d="M109.4,10.9c-.9.3-2.2,2-2.7,3.9l3.8.2c.2-1.3.3-3.3-.6-4.1Z" transform="translate(0 0)"/><path class="cls-1" d="M121.3,0h-35A17,17,0,0,0,69.2,17.1v35A17.1,17.1,0,0,0,86.3,69.2h35a17.2,17.2,0,0,0,17.1-17.1v-35A17.1,17.1,0,0,0,121.3,0ZM110.5,46.4a10.3,10.3,0,0,1-3.8,3.7V51c-.1,2.9-.1,5.4-1,5.9a2.1,2.1,0,0,1-1.3.3,3.3,3.3,0,0,1-1.3-.3c-.2-.1-.2-.2-.2-.4h.4a2.3,2.3,0,0,0,2.1,0c.7-.4.7-3.8.7-5.4v-.7a11.6,11.6,0,0,1-5.3.7,5.7,5.7,0,0,1-1.8-.3V51c0,2.9-.1,5.4-1,5.9a1.8,1.8,0,0,1-1.2.3,4.1,4.1,0,0,1-1.4-.3c-.1-.1-.2-.2-.1-.4h.4a2.3,2.3,0,0,0,2.1,0c.6-.4.7-3.8.7-5.4v-.4c-2.6-1-3-3.2-3.2-5s-.9-27.6-.9-29.8,1-1.5,1-1.5l4.9.3h2.2c0-1.6.1-4.4,1-4.8s.3-.1.6.1,1.3,3.5,1.2,4.7a.1.1,0,0,1-.1.1h.9c.6-2,1.9-4.1,3.1-4.5a1.4,1.4,0,0,1,1.1.2c1,.9,1,2.7.7,4.5h.7s-.3,6.6-.3,11.2S112.9,42.4,110.5,46.4Z" transform="translate(0 0)"/></g><g id="M"><path id="Left_Eye" data-name="Left Eye" class="cls-1" d="M26.5,18.1A1.1,1.1,0,0,0,27.7,17a1.2,1.2,0,0,0-2.4,0A1.1,1.1,0,0,0,26.5,18.1Z" transform="translate(0 0)"/><path id="Right_Eye" data-name="Right Eye" class="cls-1" d="M45.2,16.4a1.2,1.2,0,1,0,0,2.3,1.1,1.1,0,0,0,1.2-1.1A1.2,1.2,0,0,0,45.2,16.4Z" transform="translate(0 0)"/><path id="Smile" class="cls-1" d="M44.2,22.7c-5.7,3.2-16.8.9-18.6-.5,0,0-1.3-.3-.1.8s2.7,2.6,7.9,3.2C42.8,27.4,50,19.5,44.2,22.7Z" transform="translate(0 0)"/><path id="M-2" data-name="M" class="cls-1" d="M52.1,0h-35A17,17,0,0,0,0,17.1v35A17.1,17.1,0,0,0,17.1,69.2h35A17.2,17.2,0,0,0,69.2,52.1v-35A17.1,17.1,0,0,0,52.1,0Zm4.4,51.9H50.9v5.3a2.1,2.1,0,0,0,.7,1.5,3.3,3.3,0,0,0,2.7.3c.2,0,.3.1.4.3s-.1.3-.3.4H53.3a3.3,3.3,0,0,1-2.1-.6,2.9,2.9,0,0,1-.9-2V52H45.6c-.3-7.8-1-15.9-1-21.1,0-2-2.3-2.3-2.4-.2-.2,5.3.3,13.6.2,21.4H29.7c-.2-7.9-.9-16-.9-21.3,0-2-2.4-2.3-2.4-.2-.2,5.3.3,13.7.2,21.6H21v5.3a2.8,2.8,0,0,1-1,2,3.3,3.3,0,0,1-2.1.6H16.9c-.1,0-.3-.2-.2-.3s.2-.3.4-.3a3.1,3.1,0,0,0,2.6-.4,2.1,2.1,0,0,0,.7-1.5V52.4H15.4s-.7.3-.7-1.5-.2-28.4-.2-28.4V18.4s-.3-7.5,9.8-8.5c7.1-.8,10.6,7.3,10.6,7.3,4.8-8.7,13.9-6.4,17.6-2.7s3.8,9.3,4,13.2S56.5,51.9,56.5,51.9Z" transform="translate(0 0)"/></g></svg>