<?xml version="1.0" encoding="UTF-8"?><svg id="Layer_1" xmlns="http://www.w3.org/2000/svg" viewBox="0 0 20 20"><path d="m.31,2.05C.14,2.05,0,2.19,0,2.36s.14.31.31.31h3.47l.69,2.58,1.97,7.37.3-.08-.3.08c.04.14.17.23.31.23h10.96c.15,0,.28-.11.31-.25l1.97-7.36h0c.04-.17-.05-.34-.22-.38-.03,0-.06-.01-.09-.01H4.94c-.17,0-.31.14-.31.31s.14.31.31.31h14.34l-1.81,6.76H6.99l-1.91-7.13-.75-2.8c-.03-.14-.16-.25-.31-.25H.31Z"/><path d="m16.12,14.24c.51,0,.98.21,1.31.54.34.34.54.8.54,1.31s-.21.98-.54,1.31c-.34.34-.8.54-1.31.54s-.98-.21-1.31-.54c-.34-.34-.54-.8-.54-1.31s.21-.98.54-1.31c.34-.34.8-.54,1.31-.54h0Zm.87.99c-.22-.22-.53-.36-.87-.36s-.65.14-.87.36c-.22.22-.36.53-.36.87s.14.65.36.87c.22.22.53.36.87.36s.65-.14.87-.36c.22-.22.36-.53.36-.87s-.14-.65-.36-.87Z"/><path d="m9.28,14.24c.51,0,.98.21,1.31.54.34.34.54.8.54,1.31s-.21.98-.54,1.31c-.34.34-.8.54-1.31.54s-.98-.21-1.31-.54c-.34-.34-.54-.8-.54-1.31s.21-.98.54-1.31c.34-.34.8-.54,1.31-.54h0Zm.87.99c-.22-.22-.53-.36-.87-.36s-.65.14-.87.36c-.22.22-.36.53-.36.87s.14.65.36.87c.22.22.53.36.87.36s.65-.14.87-.36c.22-.22.36-.53.36-.87s-.14-.65-.36-.87Z"/></svg>