<?xml version="1.0" encoding="UTF-8"?><svg id="Layer_1" xmlns="http://www.w3.org/2000/svg" viewBox="0 0 20 20"><defs><style>.cls-1{fill:#d35400;fill-rule:evenodd;}</style></defs><path class="cls-1" d="m17.23,7.74s0,.02-.05.04c-.02.02-.02.02-.05.03-.25.09-.4-.19-.64-.29-.26-.1-.48-.11-.76-.11l-.24-.03c-.2.04-.42-.08-.54-.18-.18-.15-.17-.19-.29-.43l-.03.23c-.02.52-.11,1.23-.04,1.73.08-.26.07-.33.19-.72.08.49.04,2.36-.1,2.77-.08-.23-.11-.37-.22-.59-.09-.18-.24-.36-.3-.5-.08-.04-.17-.14-.25-.21-.08-.07-.18-.12-.27-.18.4.32.86,1.3.6,1.95-.12.46-.27.27-.47.41.37-.08,1.34.34,1.79.49.12.04.17.04.21.16.04.12.03.21-.02.32l-.08.16-.11-.36s0-.02.02-.08l-.23-.06c-.59-.02-1.12.2-1.77.11-.54-.07-.87-.4-1-.9l-.19-.62c-.12.67-.21,1.08-.98,1.03.16.12.61.26.76.59l.36.4c-.2.16-.86.18-1.15.16-.99-.04-2.14-.7-2.36-1.53-.14-.18-.15-.51-.25-.69-.03.39-.08,1.06-.21,1.37-.13.68-.57,1.32-.93,1.65-.54.49-1,.62-1.74.81-.02,0-.49.09-.52.1-.13.05-.19.31-.23.43-.01-.08.05-.25.07-.36.06-.24.17-.18.58-.39.11-.06.22-.16.3-.18.05-.1.17-.2.24-.3.05-.07,0-.04.09-.08.01-.08.07-.16.11-.25.07-.34.03-.46,0-.8-.02-.18-.05-.64.05-.76-.01-.19.14-.54.23-.69.34-.63.79-1.02,1.6-1.15.95-.16,1.88.45,3.11-.37,1.88-1.26,1.95-3.1,3.04-3.89.16-.11.13,0,.29.03-.15-.09-.54-.52-.71-.66-.27-.24-.57-.33-.91-.51.45.03.87.39,1.18.66.1.09.22.24.32.3-.2-.43-.81-.83-1.25-.96-.18-.05-.44-.08-.59-.17,1.8-.02,1.7.72,2.16,1.24.16-.1.22-.19.5-.19.32,0,.33.11.5.21v-.33c.15.04.27.12.33.23.1-.07.01,0,.08-.11.09.17.13.43.19.55,0-.39-.19-.52-.17-.84.05-.91-.34-1.65-.91-2.24-.15-.16-.34-.36-.52-.5-.25-.21-.86-.76-1.08-1.02-.08-.09-.15-.18-.23-.29-.04-.05-.07-.09-.11-.15l-.13-.15c.23.95,1.44,1.81,1.81,2.69l-.57-.33c-.69-.35-1.49-.49-2.28-.56-.6-.05-1.23-.05-1.84-.03-.59.02-1.21.1-1.8.12.38-.31,2.49-.4,2.85-.4.97,0,1.95.13,2.78.43-.07-.12-.21-.25-.31-.36-.3-.38-.68-.8-.82-1.31-1.9-.28-4.16.39-5.4,1.24-.17.12-.33.22-.5.34-.81.6-1.49,1.32-2.01,2.2-.18.3-.45.76-.56,1.11.71.04,1.56,0,2.28,0,.76,0,1.53,0,2.29,0h3.45c.23,0,.24-.03.4-.18.08-.07.25-.24.29-.3-.72-.29-1.49-.88-1.69-1.64.42-.05.87.05,1.28.09-.32-.19-1.35-.29-1.8-.31-.33-.01-1.89,0-2.07-.06.25-.11,1.33-.19,1.68-.2,1.06-.04,2.26.14,3.14.69.22.14.38.23.54.41.04.05.08.07.12.12.1.11.25.3.27.45l-.2.03c-.33-.36-.46-.55-1-.71-.44-.12-1-.17-1.49-.22.11.27.54.59.8.75.29.18.68.36,1.01.52-.1.15-.4.42-.56.54-.07.06-.14.14-.2.2h.21c-.15.32-.71.61-.97.83l.4.05c-.1.15-.4.37-.57.47-.1.06-.21.12-.32.18-.11.05-.28.1-.38.15.17.09.5.06.65.16-.6.43-.81.55-1.6.63.15.11.43.14.63.18-.14.17-.71.42-1.01.5-.44.11-.98-.01-1.44-.02-1.05-.03-1.59.34-2.27.76-.34.21-.62.35-.92.58-.73.54-1.33.78-2.3.77-.53,0-.91-.12-1.36-.17.76.44,2.01.86,2.94.8.46-.03.63-.13,1.01-.26-.04.41-.06.61,0,1.03.1.68-.18,1.06-.79,1.33-.27.12-.16.21-.31.79-.18.71-.4,1.37-.65,2.04-.06.16-.09.28-.22.33-.3.11-.39.02-.44.37-.01.08-.02.17-.07.23-.17-.24-.56-.49-1.02-.49-.44,0-.91.24-1.03.49.43,0,.72.03.97.28-.32.03-1.52.01-1.64.24.03.04-.01,0,.07.05.18.1.58.1.79.11.32.02.65.04.97.05,2.02.07,4.05.03,6.08.04,1.35,0,2.7,0,4.05-.01,1.3-.01,2.72,0,4-.09-.39-.21-7.12-.21-8.15-.23l.23-.07c.95-.17,1.3-.05,2.07-.1-.42-.2-1.57-.25-2.11-.24-.73.02-1.34.2-2,.35.06-.17.34-.34.58-.4-.07-.05-.22-.05-.32-.06-1.13-.05-1.79.44-2.13.48.05-.23.13-.27.2-.44-.52,0-.78.17-1.15.35.16-.35.48-.44.64-.64l.7-1.88c.23-.56.11-.59.61-.71.72-.17,1.48-.21,2.06-.55.49-.29.97-.78,1.16-1.45,1.09.45,1.86.66,3.09.38.63-.14,1.11-.37,1.61-.68.14-.09.19-.07.38-.09.28-.04.59-.07.87-.08-.05.23-.98,1.56-1.13,1.68-.39-.03-.32-.14-.56.15-.07.08-.35.35-.37.42.35.05.4.13.72-.04.23-.12.04-.08.35-.1.36-.02.51-.43.7-.7.2-.29,1.05-1.45,1.09-1.65.01-.07-.06-.28-.1-.34-.05-.08-.21-.11-.33-.15-.14-.05-.57-.19-.66-.27.39-.17,1.25-.77,1.58-.86.08.11.23.51.29.65l.53,1.36c.13.33-.06.44-.27.59-.07.36.03.75.24.92.09-.09.46-.81.54-.98.28-.61.25-.37-.05-1.11l-.69-1.63c-.07-.16-.18-.39-.23-.56-.54.09-1.19.4-1.68.6,0-.23.04-.49.06-.73.03-.57-.07-1.8.17-2.19.1-.15.42-.12.69-.11.28,0,.4.08.61.19.64.34.93-.36.92-.44-.06-.11-.26-.29-.34-.34.08.11.22.23.26.33-.18.03-.26,0-.41-.05l.19.23c.08.07.04,0,.08.1-.06.03-.04.02-.09.03m-1.72-4.46c-.14-.03-.27-.2-.36-.29-.12-.12-.2-.2-.33-.34.12.06.62.51.69.63Zm-.04.9c-.18-.09-.46-.34-.97-.59-.18-.09-.36-.17-.55-.24-.17-.06-.41-.12-.56-.2.47.02,1.31.37,1.7.64.2.13.28.17.38.39Zm.37-.48c-.13-.05-.16-.12-.24-.21-.06-.07-.16-.13-.2-.2.19.02.38.24.44.4Zm-.77.71h-.1c-.13-.05-.23-.12-.3-.19-.03-.03,0,0-.04-.03-.02,0-.04-.01-.06-.02-.09-.05,0,.02-.07-.07l.18.02s-.03.08.09-.02l-.36-.13c-.1-.1-.02-.06-.2-.11-.08-.02-.13-.04-.22-.05-.03-.05,0,0-.02-.06-.03-.11.03.03,0-.04-.16-.04-.3-.07-.47-.07-.04-.06,0-.02-.03-.09-.42-.05-.85-.13-1.29-.17-1.27-.12-2.93.12-4.25-.04.13-.01.32-.07.46-.09,1.77-.29,3.93-.29,5.58.37.4.16,1.25.62,1.39.91l-.29-.13Zm1.03-.25c-.16-.12-.28-.33-.42-.43l.21.04c.05.12.16.22.21.4Zm-.19-.02c.19.04.24.06.3.25.04.11.1.32.1.43l-.27-.35.2.06-.32-.39Zm-.45.64c-.13,0-.13-.05-.25-.08.03-.09,0-.04.04-.1l-.11-.06c.26,0,.38.03.48.29-.06-.02-.09-.03-.15-.04Zm-.05.06c.06,0,.09,0,.15,0,.11.02.16.08.19.25l-.34-.26Zm.93.31l-.2-.34c.2.04.2.09.21.3,0,.15.02.31,0,.46-.03-.1-.06-.15-.11-.2.05-.02.04.02.1-.02l-.14-.25.15.05Zm-.48.22c-.12-.07-.18-.17-.3-.26.24,0,.26.02.3.26Zm.05.26c-.1-.1-.11-.2-.23-.26.16,0,.15.03.19.03l.03.22Zm-5.5-.04c.59-.07,1.51-.03,2.07.03-.75.05-1.44.05-2.18.01l.11-.04Zm-4.5,5.76l-.12.16s-.09.09-.14.13c-.45.36-1.06.19-1.28.19l.16-.04c.95-.3,1.38-.92,1.96-1.13l-.58.69Zm12.01-3.96c-.12.41-.41.88-.85.92-.62.06-.38-.33-1.49-.25-.11.24-.06.83-.07,1.12l-.03.99,1.43-.47c.1.13,1.09,2.55,1.29,3.01.06.14.11.19.05.36-.14.38-.83,1.72-.99,1.87-.62-.55-.61-.71-.63-1.42,0-.22,0-.17.28-.41-.04-.19-.25-.64-.33-.85-.11-.29-.22-.59-.35-.86-.17.08-.45.23-.61.34l.49.15c.17.82.39.42-.23,1.33l-1.16,1.71c-.18.26-.15.16-.66.31-.34.1-.39.18-.78.11-.27-.05-.55-.11-.81-.16l.84-.9c.31-.35.25-.3.59-.2.15-.27.51-.62.62-.91-.58.09-1.68,1.14-3.78.93-.77-.08-.86-.21-1.31-.3-.07.1-.13.23-.2.33-.85,1.27-2.06,1.21-2.33,1.36,1.13.1,2.3.1,3.44.18l3.39.25-5.27.17c.26.22,1.41.59,1.84.69,3.41.83,6.91-.6,8.64-3.57,1.69-2.92,1.37-6.48-.71-9.04-.75-.92-1.72-1.69-2.84-2.21-.24-.11-.98-.42-1.23-.46.1.08.19.21.29.29,1.12,1.02,2.49,1.96,2.34,3.71-.02.2.16.32.18.68.01.16-.02.16.07.26.23.24.77.74.91.95Zm-13.67,1.03h6.98s-.47-.21-.47-.21c.11-.1.52-.25.68-.33.11-.06.58-.28.63-.35h-.47c.06-.08.5-.34.68-.47.12-.09.54-.4.62-.5H4.69c-.19.4-.41,1.38-.44,1.87Zm-2.94.9l1.46.16c.32.04,1.12.17,1.37.28l.02.28c.28.03,1.61,0,2.04,0,.15,0,.16-.02.25-.09.68-.53,1.33-.74,2.32-.84-.25.01-.63-.02-.91-.02-2.27,0-4.26.03-6.55.23ZM0,15.87c.95.15,2.02.15,3,.46.16.05.77.29.86.3l.31-.96c-.72-.05-2.35.04-3.16.1C.68,15.79.3,15.86,0,15.87Zm4.75-2.42h.9c0-.19-.1-.53-.1-.79-.08-.02-.74.03-.93.02-.3-.02-.59-.08-.88-.11.08.07.24.11.35.14.21.06.29.03.36.12.09.13.18.46.31.63Zm-2.3.58c.37.05.74.06,1.12.1.36.04.76.14,1.09.16.14-.24.53-.32.78-.48-.86-.07-2.12.13-2.99.22Zm1.83-3.1c.21-.05.61-.08.78-.14.14-.05.48-.27.57-.36h-1.43s.08.49.08.49Zm11.51-4.2c.18,0,.45.19.56.25-.08-.15-.25-.29-.42-.62-.07-.13-.13-.22-.25-.27-.2-.08-.34,0-.52-.02l-.1.04c.07.12.09.07.16.16.09.11.02.33.42.42l.15.05Zm-.33-.43c.1,0,.09-.03.14.06-.09.13-.13.07-.14-.06Zm1.88,7.74c-.04.08-.02.06-.09.11,0-.14-.04-.36.03-.47.05-.08.19-.19.27-.24.02-.14.02-.14.15-.14-.03.18-.27.61-.37.74Z"/></svg>