<?xml version="1.0" encoding="UTF-8"?><svg id="Layer_1" xmlns="http://www.w3.org/2000/svg" viewBox="0 0 2250 2250"><defs><style>.cls-1{fill:#1a1a1a;}</style></defs><path class="cls-1" d="m1761.98,1864.08c-67.35-21.03-106.46-90-159.61-133.74-52.26-49.23-99.4-105-156.26-148.76-186.55,143.69-449.38,178.12-665.57,84.1-253.25-105.21-426.15-377.95-404.77-652.76,11.26-265.91,199.96-511.54,452.83-593.58,253.84-88.35,555.52-3.45,724.85,205.55,174.77,203.62,204.89,515.76,70.81,748.42-8.03,30-61.47,61.79-18.58,84.8,85.66,88.48,177.91,171.1,257.27,265.29,41.31,66.67-25.13,155.88-100.96,140.69Zm-640.25-308.58c240.42-34.36,433.8-260.59,429.15-503.46,4.64-234.07-174.03-454.23-403.66-498.95-217.39-50.84-456.04,64.07-557.58,261.58-110.66,202.21-58.82,475.42,118.57,622.89,111.76,99.03,266.71,140.66,413.53,117.94"/></svg>