<?xml version="1.0" encoding="UTF-8"?><svg id="_Layer_" xmlns="http://www.w3.org/2000/svg" viewBox="0 0 4000 4000"><defs><style>.cls-1{fill:none;}</style></defs><path d="m1999.32,3664c-918.99-.52-1663.56-745.92-1663.05-1664.91.37-668.06,400.25-1271.12,1015.49-1531.48,846.55-357.64,1822.73,38.71,2180.37,885.26,357.64,846.55-38.71,1822.73-885.26,2180.37-204.85,86.72-425.1,131.19-647.56,130.77Zm0-3199.19c-846.75,0-1535.61,688.87-1535.61,1535.61s688.87,1535.61,1535.61,1535.61,1535.61-688.87,1535.61-1535.61S2846.06,464.8,1999.32,464.8Z"/><path d="m873.4,3200.71c-35.34,0-63.98-28.65-63.98-63.98v-30.79c-.02-531.96,431.2-963.21,963.16-963.24h453.41c531.96.04,963.19,431.27,963.24,963.24v30.71c0,35.34-28.65,63.98-63.98,63.98s-63.98-28.65-63.98-63.98v-30.71c0-460.56-374.71-835.27-835.27-835.27h-453.41c-460.52,0-835.19,374.71-835.19,835.27v30.79c0,35.34-28.65,63.98-63.98,63.98Z"/><path d="m1999.32,1892.2c-318.88,0-578.29-259.41-578.29-578.29s259.41-578.33,578.29-578.33,578.29,259.45,578.29,578.33-259.41,578.29-578.29,578.29Zm0-1028.66c-248.73-.02-450.38,201.6-450.41,450.33-.02,248.73,201.6,450.38,450.33,450.41,248.73.02,450.38-201.6,450.41-450.33v-.04c-.26-248.61-201.72-450.08-450.33-450.37h0Z"/><rect class="cls-1" width="4000" height="4000"/></svg>