<?xml version="1.0" encoding="UTF-8"?><svg id="Layer_1" xmlns="http://www.w3.org/2000/svg" viewBox="0 0 484 484"><defs><style>.cls-1{fill:#fff;}.cls-1,.cls-2{fill-rule:evenodd;}.cls-3{fill:#ef5e5e;}.cls-2{fill:#f70b0b;}</style></defs><circle class="cls-3" cx="242.42" cy="242.58" r="184.32" transform="translate(-100.53 242.47) rotate(-45)"/><path class="cls-2" d="m403.48,242.58c0-44.48-18.03-84.74-47.17-113.89-29.15-29.15-69.41-47.17-113.89-47.17s-84.74,18.03-113.89,47.17c-29.15,29.15-47.17,69.41-47.17,113.89s18.03,84.74,47.17,113.89c29.15,29.15,69.41,47.17,113.89,47.17s84.74-18.03,113.89-47.17c29.15-29.15,47.17-69.41,47.17-113.89Z"/><polygon class="cls-1" points="283.47 240 350.42 173.05 311.95 134.58 245 201.53 242.42 204.11 239.84 201.53 172.89 134.58 134.42 173.05 201.37 240 203.95 242.58 201.37 245.16 134.42 312.11 172.89 350.58 239.84 283.63 242.42 281.05 245 283.63 311.95 350.58 350.42 312.11 283.47 245.16 280.89 242.58 283.47 240"/></svg>