<?xml version="1.0" encoding="utf-8"?>
<!-- Generator: Adobe Illustrator 27.3.1, SVG Export Plug-In . SVG Version: 6.00 Build 0)  -->
<svg version="1.1" id="Layer_1" xmlns="http://www.w3.org/2000/svg" xmlns:xlink="http://www.w3.org/1999/xlink" x="0px" y="0px"
	 viewBox="0 0 2200 2200" style="enable-background:new 0 0 2200 2200;" xml:space="preserve">
<style type="text/css">
	.st0{fill:#1176FF;}
	.st1{fill:#1052E5;}
	.st2{fill:#FFFFFF;}
</style>
<g id="Objects">
	<g>
		<path class="st0" d="M1940,1100c0,49.8-4.3,98.7-12.7,146.1c-69.2,394.3-413.3,693.9-827.3,693.9c-12.7,0-25.4-0.3-37.9-0.8
			C615.7,1919.3,260,1551.2,260,1100c0-463.9,376.1-840,840-840S1940,636.1,1940,1100z"/>
		<path class="st1" d="M1927.3,1246.1c-69.2,394.3-413.3,693.9-827.3,693.9c-12.7,0-25.4-0.3-37.9-0.8
			c-187.1-187.1-341.8-342-343.1-343.4c-24.4-21.1-37.6-53.2-33.9-86.6c8.2-74.2,31.7-148.1,85.4-181.5
			c99.1-61.7,197.4-87.9,197.4-87.9c3.5-10.8,7.4-46.5,9.4-83c-12.5-13-25-26.6-38.1-39.5c-21.2-20.8-26.4-49.2-33-85
			c-4.7-2.1-7.3-6.1-9.8-9.8c0,0,0-0.1-0.1-0.1c-4.8-2.1-7.4-6.1-9.9-9.8c0,0,0-0.1-0.1-0.1c-4.8-2.1-7.4-6.1-9.9-9.8
			c-3-4.5-4.1-10-5.2-15.3c-4-19.1-8-38.1-12-57.2c-3-14.3-6-29-4-43.5c1-6.8,3.4-14,9-18.1c5.6-4,15-3.1,17.8,3.3
			c0,0-9.1-89.7-9.1-82.2c-7.6-8.5-13.7-26.9-11.1-41.1c2.5-14.2,7-28.1,9.3-42.3c2.5-15.7,2.2-31.8,6.7-47.1
			c6.3-21.5,21.5-39,37-55.2c10.9-11.5,22.2-22.6,34.6-32.5c24.7-19.9,54.2-34.8,85.7-38.3c10.1-1.1,20.3-1.1,30.5-1
			c11.4,0.1,22.8,0.1,34.2,0.2c11.4-0.1,22.8-0.1,34.2-0.2c10.2,0,20.4-0.1,30.5,1c31.5,3.5,61,18.5,85.7,38.3
			c10.8,8.7,20.8,18.3,30.4,28.2C1282.8,601.5,1639,957.7,1927.3,1246.1z"/>
		<path class="st2" d="M1453.5,1612.7c-62.2,25.4-173.5,55.3-353.5,55.3s-291.3-29.9-353.5-55.3c-41.3-16.9-66.4-59.1-61.5-103.5
			c8.2-74.2,31.7-148.1,85.4-181.5c99.1-61.7,197.4-87.9,197.4-87.9c3.5-10.8,7.4-46.5,9.4-83c-12.5-13-25-26.6-38.1-39.5
			c-25-24.5-27.8-59.6-36.7-104.8c-16.4,4.7-21.6-3.1-25.9-9.8c-3-4.5-4.1-10-5.2-15.3c-4-19.1-8-38.1-12-57.2c-3-14.3-6-29-4-43.5
			c1-6.8,3.4-14,9-18.1c5.6-4,15-3.1,17.8,3.3c0,0-9.1-89.7-9.1-82.2c-7.6-8.5-13.6-26.9-11.1-41.1c2.5-14.2,7-28.1,9.3-42.4
			c2.5-15.7,2.2-31.8,6.7-47.1c6.3-21.5,21.5-39,37-55.2c10.9-11.5,22.2-22.6,34.6-32.5c24.7-19.9,54.2-34.8,85.7-38.3
			c10.1-1.1,20.3-1.1,30.5-1c11.4,0.1,22.8,0.1,34.2,0.2c11.4-0.1,22.8-0.1,34.2-0.2c10.2,0,20.4-0.1,30.5,1
			c31.5,3.5,61,18.5,85.7,38.3c12.3,9.9,23.6,21.1,34.6,32.5c15.4,16.2,30.6,33.8,37,55.2c4.5,15.2,4.2,31.4,6.7,47.1
			c2.3,14.3,6.8,28.1,9.3,42.4c2.5,14.2-3.5,32.7-11.1,41.1c0-7.6-9.1,82.2-9.1,82.2c2.8-6.3,12.2-7.3,17.8-3.3
			c5.6,4,8.1,11.2,9,18.1c2,14.5-1,29.2-4,43.5c-4,19.1-8,38.1-12,57.2c-1.1,5.3-2.3,10.7-5.2,15.3c-4.3,6.6-9.5,14.4-25.9,9.8
			c-8.9,45.2-11.7,80.3-36.7,104.8c-13.1,12.9-25.5,26.5-38.1,39.5c2,36.5,5.9,72.2,9.4,83c0,0,98.3,26.3,197.4,87.9
			c53.8,33.5,77.3,107.3,85.4,181.5C1519.8,1553.5,1494.8,1595.8,1453.5,1612.7z"/>
	</g>
</g>
</svg>
