<?xml version="1.0" encoding="UTF-8"?><svg id="Layer_1" xmlns="http://www.w3.org/2000/svg" viewBox="0 0 120 60"><defs><style>.cls-1{fill:#fff;}.cls-1,.cls-2{fill-rule:evenodd;}.cls-2{fill:#f90;}</style></defs><path class="cls-2" d="m72.04,40.7c-5.8,4.28-14.23,6.57-21.49,6.57-10.17,0-19.32-3.76-26.25-10.02-.54-.49-.06-1.16.6-.78,7.47,4.35,16.72,6.97,26.26,6.97,6.44,0,13.52-1.33,20.03-4.1.98-.42,1.81.64.84,1.36m2.42-2.76c-.74-.95-4.9-.45-6.78-.23-.57.07-.66-.43-.14-.78,3.32-2.34,8.77-1.66,9.41-.88s-.17,6.25-3.29,8.86c-.48.4-.94.19-.72-.34.7-1.75,2.27-5.67,1.53-6.62"/><path class="cls-1" d="m67.8,20.43v-2.27c0-.31.24-.57.54-.58.01,0,.02,0,.03,0h10.17c.33,0,.59.24.59.58v1.94c0,.33-.28.75-.77,1.43l-5.27,7.53c1.96-.05,4.03.24,5.8,1.25.4.23.5.56.54.88v2.42c0,.33-.37.72-.75.52-3.13-1.64-7.29-1.82-10.75.02-.35.19-.72-.19-.72-.52v-2.3c0-.37,0-1,.37-1.56l6.11-8.76h-5.31c-.33,0-.59-.23-.59-.57m-37.12,14.18h-3.09c-.3-.02-.53-.24-.55-.53v-15.88c0-.32.27-.57.6-.57h2.89c.3.01.54.24.56.53v2.08h.06c.75-2.01,2.17-2.94,4.07-2.94s3.15.94,4.02,2.94c.75-2.01,2.45-2.94,4.28-2.94,1.3,0,2.72.53,3.58,1.74.98,1.34.78,3.28.78,4.98v10.03c0,.32-.27.58-.6.58h-3.1c-.3-.02-.56-.27-.56-.58v-8.43c0-.67.06-2.34-.09-2.98-.23-1.07-.92-1.37-1.82-1.37-.75,0-1.53.5-1.85,1.3s-.29,2.14-.29,3.04v8.42c0,.32-.27.58-.6.58h-3.1c-.31-.02-.56-.27-.56-.58v-8.42c0-1.77.29-4.38-1.91-4.38s-2.14,2.54-2.14,4.38v8.42c0,.32-.27.58-.6.58m57.22-17.3c4.59,0,7.08,3.94,7.08,8.96s-2.75,8.69-7.08,8.69-6.97-3.94-6.97-8.86,2.49-8.8,6.96-8.8m.03,3.24c-2.28,0-2.43,3.11-2.43,5.05s-.03,6.09,2.4,6.09,2.51-3.34,2.51-5.38c0-1.34-.06-2.94-.46-4.21-.35-1.11-1.04-1.54-2.02-1.54m13.01,14.07h-3.08c-.3-.02-.56-.27-.56-.58v-15.89c.02-.29.28-.52.59-.52h2.87c.27.01.49.2.55.44v2.43h.06c.87-2.17,2.08-3.21,4.22-3.21,1.4,0,2.74.5,3.61,1.87.8,1.27.8,3.41.8,4.94v10c-.04.28-.29.5-.6.5h-3.1c-.28-.02-.52-.23-.55-.5v-8.63c0-1.74.2-4.28-1.94-4.28-.75,0-1.44.5-1.8,1.27-.43.97-.49,1.94-.49,3.01v8.55c0,.32-.27.58-.61.58m-41.22-7.6c0,1.21.03,2.2-.58,3.28-.49.87-1.28,1.41-2.14,1.41-1.19,0-1.88-.91-1.88-2.24,0-2.64,2.36-3.12,4.6-3.12v.67m3.12,7.54c-.21.18-.5.2-.73.07-1.03-.85-1.21-1.25-1.78-2.06-1.7,1.73-2.9,2.25-5.1,2.25-2.61,0-4.63-1.61-4.63-4.82,0-2.51,1.36-4.22,3.3-5.06,1.68-.74,4.03-.87,5.82-1.08v-.4c0-.74.06-1.61-.38-2.24-.37-.57-1.1-.81-1.74-.81-1.18,0-2.23.6-2.49,1.86-.05.28-.26.55-.54.57l-3-.32c-.25-.06-.53-.26-.46-.65.69-3.64,3.98-4.74,6.92-4.74,1.51,0,3.47.4,4.66,1.54,1.51,1.41,1.36,3.28,1.36,5.32v4.82c0,1.45.6,2.08,1.17,2.87.2.28.24.61-.01.82l-2.37,2.06h0m-43.7-7.55c0,1.21.03,2.2-.58,3.28-.49.87-1.27,1.41-2.14,1.41-1.19,0-1.88-.91-1.88-2.24,0-2.64,2.36-3.12,4.6-3.12v.67m3.12,7.54c-.2.18-.5.2-.73.07-1.03-.85-1.2-1.25-1.78-2.06-1.7,1.73-2.9,2.25-5.1,2.25-2.6,0-4.63-1.6-4.63-4.82,0-2.51,1.36-4.22,3.3-5.06,1.68-.74,4.03-.87,5.82-1.08v-.4c0-.74.06-1.61-.37-2.24-.38-.57-1.1-.81-1.74-.81-1.18,0-2.23.6-2.5,1.86-.05.28-.26.55-.53.57l-3-.32c-.25-.06-.53-.26-.46-.65.69-3.64,3.98-4.74,6.92-4.74,1.51,0,3.47.4,4.66,1.54,1.51,1.41,1.36,3.28,1.36,5.32v4.82c0,1.45.6,2.08,1.17,2.87.2.28.24.61-.01.82l-2.36,2.05h-.01"/></svg>