<?xml version="1.0" encoding="utf-8"?>
<!-- Generator: Adobe Illustrator 27.3.1, SVG Export Plug-In . SVG Version: 6.00 Build 0)  -->
<svg version="1.1" id="Layer_1" xmlns="http://www.w3.org/2000/svg" xmlns:xlink="http://www.w3.org/1999/xlink" x="0px" y="0px"
	 viewBox="0 0 3000 3000" style="enable-background:new 0 0 3000 3000;" xml:space="preserve">
<style type="text/css">
	.st0{fill:#3498DB;}
</style>
<path class="st0" d="M1332.1,419.2c-21.9,0-36.6,17.9-39.6,39.6L1256,717.9c-47.1,14.7-92.8,33.6-136.5,56.5l-209-157.3
	c-8.8-6.6-18.9-10.5-28.8-10.8c-9.9-0.3-19.5,3-27.3,10.8l-73.8,73.8l-89.9,89.9L617,854.5c-15.5,15.5-13.2,38.5,0,56l157.4,209
	c-22.9,43.7-41.8,89.4-56.5,136.5l-259.1,36.5c-21.7,3.1-39.6,17.7-39.6,39.6v335.8c0,21.9,17.9,36.6,39.6,39.6l259.1,36.5
	c14.7,47.1,33.6,92.8,56.5,136.5l-157.4,209c-13.2,17.5-15.5,40.5,0,56l73.8,73.8l89.9,89.9l73.8,73.8c15.5,15.5,38.5,13.2,56,0
	l209-157.4c43.7,22.9,89.4,41.8,136.5,56.5l36.5,259.1c3.1,21.7,17.7,39.6,39.6,39.6h335.8c21.9,0,36.6-17.9,39.6-39.6l36.5-259.1
	c47.1-14.7,92.8-33.6,136.5-56.5l209,157.4c17.5,13.2,40.5,15.5,56,0l73.8-73.8l89.9-89.9l73.8-73.8c15.5-15.5,13.2-38.5,0-56
	l-157.3-209c22.9-43.7,41.8-89.4,56.5-136.5l259.1-36.5c21.7-3.1,39.6-17.7,39.6-39.6v-335.8c0-21.9-17.9-36.6-39.6-39.6
	l-259.1-36.5c-14.7-47.1-33.6-92.8-56.5-136.5l157.3-209c13.2-17.5,15.5-40.5,0-56l-237.4-237.4c-7.8-7.8-17.4-11.1-27.3-10.8
	c-9.9,0.3-20,4.2-28.8,10.8l-209,157.3c-43.7-22.9-89.4-41.8-136.5-56.5l-36.5-259.1c-3.1-21.7-17.7-39.6-39.6-39.6L1332.1,419.2
	L1332.1,419.2z M1498.9,968.3c0.4,0,0.8,0,1.1,0c293.6,0,531.7,238,531.7,531.7s-238,531.7-531.7,531.7s-531.7-238-531.7-531.7
	C968.3,1206.8,1205.7,968.9,1498.9,968.3"/>
</svg>
