<?xml version="1.0" encoding="utf-8"?>
<svg viewBox="1112.914306640625 -51.56401824951172 325.9998779296875 282.70001220703125" width="325.9998779296875" height="282.70001220703125" xmlns="http://www.w3.org/2000/svg"><g transform="matrix(1, 0, 0, 1, 52.61430740356445, -151.864013671875)"><g transform="matrix(1, 0, 0, 1, 1.8189894035458565e-12, 4.547473508864641e-13)">
		<path class="st0" d="M1092.2,342.8l3.4,37.8l-18.6,1.7c-7.7,0.7-14.4-5-15.1-12.6l-0.9-10.1c-0.7-7.7,5-14.4,12.6-15.1&#10;&#9;&#9;&#9;L1092.2,342.8z" style="fill: rgb(212, 36, 39);"/>
		
			<path d="M 1091.099976 343.899994 H 1129.099976 V 376.499992 H 1091.099976 V 343.899994 Z" transform="matrix(-8.901139e-02 -0.996 0.996 -8.901139e-02 850.1315 1497.9674)" class="st1" style="fill: rgb(217, 75, 56);"/>
		
			<path d="M 1123.599976 341 H 1161.599976 V 373.599998 H 1123.599976 V 341 Z" transform="matrix(-8.901139e-02 -0.996 0.996 -8.901139e-02 888.3783 1527.1459)" class="st2" style="fill: rgb(222, 104, 82);"/>
		
			<path d="M 1156 338.100006 H 1194 V 370.700005 H 1156 V 338.100006 Z" transform="matrix(-8.900878e-02 -0.996 0.996 -8.900878e-02 926.622 1556.3237)" class="st3" style="fill: rgb(228, 130, 109);"/>
		
			<path d="M 1188.5 335.200012 H 1226.5 V 367.800011 H 1188.5 V 335.200012 Z" transform="matrix(-8.900855e-02 -0.996 0.996 -8.900855e-02 964.8685 1585.5021)" class="st4" style="fill: rgb(234, 156, 139);"/>
		
			<path d="M 1221 332.299988 H 1259 V 364.899986 H 1221 V 332.299988 Z" transform="matrix(-8.901116e-02 -0.996 0.996 -8.901116e-02 1003.1185 1614.6812)" class="st5" style="fill: rgb(241, 185, 175);"/>
		
			<path d="M 1253.5 329.399994 H 1291.5 V 361.999992 H 1253.5 V 329.399994 Z" transform="matrix(-8.901139e-02 -0.996 0.996 -8.901139e-02 1041.3657 1643.8597)" class="st6" style="fill: rgb(249, 215, 215);"/>
		<path class="st7" d="M1320.7,336.3l0.9,10.1c0.7,7.7-5,14.4-12.6,15.1l-18.6,1.7l-3.4-37.8l18.6-1.7&#10;&#9;&#9;&#9;C1313.2,323,1320,328.6,1320.7,336.3z" style="fill: rgb(255, 255, 255);"/>
		<path d="M 1317.999951 352.799988 A 4.3 4.3 0 0 1 1313.699951 357.099988 A 4.3 4.3 0 0 1 1309.399951 352.799988 A 4.3 4.3 0 0 1 1313.699951 348.499988 A 4.3 4.3 0 0 1 1317.999951 352.799988 Z" class="st8" style="fill: rgb(188, 190, 192);"/>
		<path d="M 1316.799951 352.799988 A 3.1 3.1 0 0 1 1313.699951 355.899988 A 3.1 3.1 0 0 1 1310.599951 352.799988 A 3.1 3.1 0 0 1 1313.699951 349.699988 A 3.1 3.1 0 0 1 1316.799951 352.799988 Z" class="st9" style="fill: rgb(128, 130, 133);"/>
	</g><path class="st10" d="M1097.7,302.5l-3.6,37.8l-18.6-1.8c-7.6-0.7-13.3-7.5-12.5-15.2l1-10.1c0.7-7.6,7.5-13.3,15.2-12.5&#10;&#9;&#9;&#9;L1097.7,302.5z" style="fill: rgb(210, 99, 39);" transform="matrix(1, 0, 0, 1, 3.637978807091713e-12, 9.237055564881302e-13)"/><path d="M 1093.199951 306.600006 H 1131.199951 V 339.200005 H 1093.199951 V 306.600006 Z" transform="matrix(0.09446544200181961, -0.9955000281333923, 0.9955000281333923, 0.09446544200181961, 685.6635131835938, 1399.587646484375)" class="st11" style="fill: rgb(216, 117, 58);"/><path d="M 1125.599976 309.700012 H 1163.599976 V 342.300011 H 1125.599976 V 309.700012 Z" transform="matrix(0.09446308761835098, -0.9955000281333923, 0.9955000281333923, 0.09446308761835098, 711.9857788085938, 1434.6824951171875)" class="st12" style="fill: rgb(222, 134, 84);"/><path d="M 1158.099976 312.799988 H 1196.099976 V 345.399986 H 1158.099976 V 312.799988 Z" transform="matrix(0.0944657027721405, -0.9955000281333923, 0.9955000281333923, 0.0944657027721405, 738.3026733398438, 1469.7752685546875)" class="st13" style="fill: rgb(228, 153, 109);"/><path d="M 1190.5 315.799988 H 1228.5 V 348.399986 H 1190.5 V 315.799988 Z" transform="matrix(0.09446544200181961, -0.9955000281333923, 0.9955000281333923, 0.09446544200181961, 764.6226806640625, 1504.869140625)" class="st14" style="fill: rgb(235, 173, 136);"/><path d="M 1223 318.899994 H 1261 V 351.499992 H 1223 V 318.899994 Z" transform="matrix(0.09446544200181961, -0.9955000281333923, 0.9955000281333923, 0.09446544200181961, 790.9423828125, 1539.963134765625)" class="st15" style="fill: rgb(243, 194, 166);"/><path d="M 1255.400024 322 H 1293.400024 V 354.599998 H 1255.400024 V 322 Z" transform="matrix(0.0944657027721405, -0.9955000281333923, 0.9955000281333923, 0.0944657027721405, 817.2617797851562, 1575.056884765625)" class="st16" style="fill: rgb(253, 218, 199);"/><path class="st7" d="M1323.6,337.9l-1,10.1c-0.7,7.6-7.5,13.3-15.2,12.5l-18.6-1.8l3.6-37.8l18.6,1.8&#10;&#9;&#9;&#9;C1318.7,323.4,1324.3,330.2,1323.6,337.9z" style="fill: rgb(255, 255, 255);" transform="matrix(1, 0, 0, 1, 3.637978807091713e-12, 9.237055564881302e-13)"/><path d="M 1317.999951 352.799988 A 4.3 4.3 0 0 1 1313.699951 357.099988 A 4.3 4.3 0 0 1 1309.399951 352.799988 A 4.3 4.3 0 0 1 1313.699951 348.499988 A 4.3 4.3 0 0 1 1317.999951 352.799988 Z" class="st8" style="fill: rgb(188, 190, 192);" transform="matrix(1, 0, 0, 1, 3.637978807091713e-12, 9.237055564881302e-13)"/><path d="M 1316.799951 352.799988 A 3.1 3.1 0 0 1 1313.699951 355.899988 A 3.1 3.1 0 0 1 1310.599951 352.799988 A 3.1 3.1 0 0 1 1313.699951 349.699988 A 3.1 3.1 0 0 1 1316.799951 352.799988 Z" class="st9" style="fill: rgb(128, 130, 133);" transform="matrix(1, 0, 0, 1, 3.637978807091713e-12, 9.237055564881302e-13)"/><path class="st17" d="M1110.6,263.8l-10.4,36.5l-18-5.1c-7.4-2.1-11.7-9.8-9.6-17.2l2.8-9.8c2.1-7.4,9.8-11.7,17.2-9.6&#10;&#9;&#9;&#9;L1110.6,263.8z" style="fill: rgb(206, 188, 44);" transform="matrix(1, 0, 0, 1, 3.637978807091713e-12, 9.237055564881302e-13)"/><path d="M 1102 270.299988 H 1140 V 302.899986 H 1102 V 270.299988 Z" transform="matrix(0.27480006217956543, -0.9615001082420349, 0.9615001082420349, 0.27480006217956543, 537.464111328125, 1285.71923828125)" class="st18" style="fill: rgb(213, 196, 71);"/><path d="M 1133.400024 279.200012 H 1171.400024 V 311.800011 H 1133.400024 V 279.200012 Z" transform="matrix(0.27480006217956543, -0.9615001082420349, 0.9615001082420349, 0.27480006217956543, 551.5836791992188, 1322.3505859375)" class="st19" style="fill: rgb(219, 205, 101);"/><path d="M 1164.699951 288.200012 H 1202.699951 V 320.800011 H 1164.699951 V 288.200012 Z" transform="matrix(0.27480006217956543, -0.9615001082420349, 0.9615001082420349, 0.27480006217956543, 565.7025146484375, 1358.9815673828125)" class="st20" style="fill: rgb(226, 214, 128);"/><path d="M 1196.099976 297.100006 H 1234.099976 V 329.700005 H 1196.099976 V 297.100006 Z" transform="matrix(0.27480006217956543, -0.9615001082420349, 0.9615001082420349, 0.27480006217956543, 579.8214111328125, 1395.612548828125)" class="st21" style="fill: rgb(234, 223, 154);"/><path d="M 1227.400024 306.100006 H 1265.400024 V 338.700005 H 1227.400024 V 306.100006 Z" transform="matrix(0.27480006217956543, -0.9615001082420349, 0.9615001082420349, 0.27480006217956543, 593.940185546875, 1432.24365234375)" class="st21" style="fill: rgb(234, 223, 154);"/><path d="M 1258.800049 315.100006 H 1296.800049 V 347.700005 H 1258.800049 V 315.100006 Z" transform="matrix(0.27480006217956543, -0.9615001082420349, 0.9615001082420349, 0.27480006217956543, 608.0590209960938, 1468.8746337890625)" class="st22" style="fill: rgb(241, 234, 181);"/><path class="st7" d="M1326.1,339.9l-2.8,9.8c-2.1,7.4-9.8,11.7-17.2,9.6l-18-5.1l10.4-36.5l18,5.1&#10;&#9;&#9;&#9;C1324,324.8,1328.3,332.5,1326.1,339.9z" style="fill: rgb(255, 255, 255);" transform="matrix(1, 0, 0, 1, 3.637978807091713e-12, 9.237055564881302e-13)"/><path d="M 1317.999951 352.799988 A 4.3 4.3 0 0 1 1313.699951 357.099988 A 4.3 4.3 0 0 1 1309.399951 352.799988 A 4.3 4.3 0 0 1 1313.699951 348.499988 A 4.3 4.3 0 0 1 1317.999951 352.799988 Z" class="st8" style="fill: rgb(188, 190, 192);" transform="matrix(1, 0, 0, 1, 3.637978807091713e-12, 9.237055564881302e-13)"/><path d="M 1316.799951 352.799988 A 3.1 3.1 0 0 1 1313.699951 355.899988 A 3.1 3.1 0 0 1 1310.599951 352.799988 A 3.1 3.1 0 0 1 1313.699951 349.699988 A 3.1 3.1 0 0 1 1316.799951 352.799988 Z" class="st9" style="fill: rgb(128, 130, 133);" transform="matrix(1, 0, 0, 1, 3.637978807091713e-12, 9.237055564881302e-13)"/><path class="st23" d="M1130.2,228.2l-16.9,34l-16.7-8.3c-6.9-3.4-9.7-11.8-6.2-18.7l4.5-9.1c3.4-6.9,11.8-9.7,18.7-6.2&#10;&#9;&#9;&#9;L1130.2,228.2z" style="fill: rgb(149, 201, 61);" transform="matrix(1, 0, 0, 1, 3.637978807091713e-12, 9.237055564881302e-13)"/><path d="M 1117.400024 236.199997 H 1155.400024 V 268.799995 H 1117.400024 V 236.199997 Z" transform="matrix(0.4458000063896179, -0.8950999975204468, 0.8950999975204468, 0.4458000063896179, 403.7518005371093, 1157.1260986328125)" class="st24" style="fill: rgb(165, 207, 84);"/><path d="M 1146.599976 250.699997 H 1184.599976 V 283.299995 H 1146.599976 V 250.699997 Z" transform="matrix(0.4458000063896179, -0.8950999975204468, 0.8950999975204468, 0.4458000063896179, 406.91421508789057, 1191.2974853515625)" class="st25" style="fill: rgb(180, 214, 112);"/><path d="M 1175.699951 265.299988 H 1213.699951 V 297.899986 H 1175.699951 V 265.299988 Z" transform="matrix(0.4458000063896179, -0.8950999975204468, 0.8950999975204468, 0.4458000063896179, 410.07669067382807, 1225.4688720703125)" class="st26" style="fill: rgb(195, 221, 138);"/><path d="M 1204.900024 279.799988 H 1242.900024 V 312.399986 H 1204.900024 V 279.799988 Z" transform="matrix(0.4458000063896179, -0.8950999975204468, 0.8950999975204468, 0.4458000063896179, 413.2391967773437, 1259.6402587890625)" class="st27" style="fill: rgb(210, 229, 163);"/><path d="M 1234.099976 294.299988 H 1272.099976 V 326.899986 H 1234.099976 V 294.299988 Z" transform="matrix(0.4458000063896179, -0.8950999975204468, 0.8950999975204468, 0.4458000063896179, 416.4017028808593, 1293.811767578125)" class="st28" style="fill: rgb(225, 237, 189);"/><path d="M 1263.300049 308.899994 H 1301.300049 V 341.499992 H 1263.300049 V 308.899994 Z" transform="matrix(0.4458000063896179, -0.8950999975204468, 0.8950999975204468, 0.4458000063896179, 419.56408691406244, 1327.983154296875)" class="st29" style="fill: rgb(241, 245, 216);"/><path class="st7" d="M1328.3,342.4l-4.5,9.1c-3.4,6.9-11.8,9.7-18.7,6.2l-16.7-8.3l16.9-34l16.7,8.3&#10;&#9;&#9;&#9;C1328.9,327.2,1331.7,335.5,1328.3,342.4z" style="fill: rgb(255, 255, 255);" transform="matrix(1, 0, 0, 1, 3.637978807091713e-12, 9.237055564881302e-13)"/><path d="M 1317.999951 352.799988 A 4.3 4.3 0 0 1 1313.699951 357.099988 A 4.3 4.3 0 0 1 1309.399951 352.799988 A 4.3 4.3 0 0 1 1313.699951 348.499988 A 4.3 4.3 0 0 1 1317.999951 352.799988 Z" class="st8" style="fill: rgb(188, 190, 192);" transform="matrix(1, 0, 0, 1, 3.637978807091713e-12, 9.237055564881302e-13)"/><path d="M 1316.799951 352.799988 A 3.1 3.1 0 0 1 1313.699951 355.899988 A 3.1 3.1 0 0 1 1310.599951 352.799988 A 3.1 3.1 0 0 1 1313.699951 349.699988 A 3.1 3.1 0 0 1 1316.799951 352.799988 Z" class="st9" style="fill: rgb(128, 130, 133);" transform="matrix(1, 0, 0, 1, 3.637978807091713e-12, 9.237055564881302e-13)"/><path class="st30" d="M1156.1,196.8l-22.9,30.3l-14.9-11.2c-6.1-4.6-7.4-13.3-2.7-19.5l6.1-8.1c4.6-6.1,13.3-7.4,19.5-2.7&#10;&#9;&#9;&#9;L1156.1,196.8z" style="fill: rgb(91, 186, 71);" transform="matrix(1, 0, 0, 1, 3.637978807091713e-12, 9.237055564881302e-13)"/><path d="M 1138.699951 205.5 H 1176.699951 V 238.099998 H 1138.699951 V 205.5 Z" transform="matrix(0.6018000245094299, -0.7985999584197998, 0.7985999584197998, 0.6018000245094299, 283.81240844726557, 1012.8406982421875)" class="st31" style="fill: rgb(116, 193, 88);"/><path d="M 1164.699951 225.100006 H 1202.699951 V 257.700005 H 1164.699951 V 225.100006 Z" transform="matrix(0.6018000245094299, -0.7985999584197998, 0.7985999584197998, 0.6018000245094299, 278.50988769531244, 1041.4410400390625)" class="st32" style="fill: rgb(137, 200, 111);"/><path d="M 1190.800049 244.699997 H 1228.800049 V 277.299995 H 1190.800049 V 244.699997 Z" transform="matrix(0.6018000245094299, -0.7985999584197998, 0.7985999584197998, 0.6018000245094299, 273.2074890136718, 1070.04150390625)" class="st33" style="fill: rgb(157, 208, 134);"/><path d="M 1216.800049 264.299988 H 1254.800049 V 296.899986 H 1216.800049 V 264.299988 Z" transform="matrix(0.6018000245094299, -0.7985999584197998, 0.7985999584197998, 0.6018000245094299, 267.9049987792968, 1098.641845703125)" class="st34" style="fill: rgb(178, 217, 155);"/><path d="M 1242.800049 284 H 1280.800049 V 316.599998 H 1242.800049 V 284 Z" transform="matrix(0.6018000245094299, -0.7985999584197998, 0.7985999584197998, 0.6018000245094299, 262.6025085449218, 1127.2421875)" class="st35" style="fill: rgb(198, 226, 178);"/><path d="M 1268.900024 303.600006 H 1306.900024 V 336.200005 H 1268.900024 V 303.600006 Z" transform="matrix(0.6018000245094299, -0.7985999584197998, 0.7985999584197998, 0.6018000245094299, 257.2999877929687, 1155.842529296875)" class="st36" style="fill: rgb(218, 235, 202);"/><path class="st7" d="M1329.9,345.3l-6.1,8.1c-4.6,6.1-13.3,7.4-19.5,2.7l-14.9-11.2l22.9-30.3l14.9,11.2&#10;&#9;&#9;&#9;C1333.3,330.4,1334.6,339.1,1329.9,345.3z" style="fill: rgb(255, 255, 255);" transform="matrix(1, 0, 0, 1, 3.637978807091713e-12, 9.237055564881302e-13)"/><path d="M 1317.999951 352.799988 A 4.3 4.3 0 0 1 1313.699951 357.099988 A 4.3 4.3 0 0 1 1309.399951 352.799988 A 4.3 4.3 0 0 1 1313.699951 348.499988 A 4.3 4.3 0 0 1 1317.999951 352.799988 Z" class="st8" style="fill: rgb(188, 190, 192);" transform="matrix(1, 0, 0, 1, 3.637978807091713e-12, 9.237055564881302e-13)"/><path d="M 1316.799951 352.799988 A 3.1 3.1 0 0 1 1313.699951 355.899988 A 3.1 3.1 0 0 1 1310.599951 352.799988 A 3.1 3.1 0 0 1 1313.699951 349.699988 A 3.1 3.1 0 0 1 1316.799951 352.799988 Z" class="st9" style="fill: rgb(128, 130, 133);" transform="matrix(1, 0, 0, 1, 3.637978807091713e-12, 9.237055564881302e-13)"/><path class="st37" d="M1187.2,170.6l-28,25.6l-12.6-13.8c-5.2-5.7-4.8-14.5,0.9-19.7l7.5-6.9c5.7-5.2,14.5-4.8,19.7,0.9&#10;&#9;&#9;&#9;L1187.2,170.6z" style="fill: rgb(71, 182, 73);" transform="matrix(1, 0, 0, 1, 3.637978807091713e-12, 9.237055564881302e-13)"/><path d="M 1165.300049 179.199997 H 1203.300049 V 211.799995 H 1165.300049 V 179.199997 Z" transform="matrix(0.7376000285148621, -0.6751999855041504, 0.6751999855041504, 0.7376000285148621, 178.72000122070307, 850.9052124023438)" class="st38" style="fill: rgb(107, 191, 94);"/><path d="M 1187.300049 203.199997 H 1225.300049 V 235.799995 H 1187.300049 V 203.199997 Z" transform="matrix(0.7376000285148621, -0.6751999855041504, 0.6751999855041504, 0.7376000285148621, 168.25830078124994, 872.0720825195312)" class="st39" style="fill: rgb(135, 200, 122);"/><path d="M 1209.300049 227.300003 H 1247.300049 V 259.900002 H 1209.300049 V 227.300003 Z" transform="matrix(0.7376000285148621, -0.6751999855041504, 0.6751999855041504, 0.7376000285148621, 157.7994995117187, 893.2435302734375)" class="st40" style="fill: rgb(161, 210, 149);"/><path d="M 1231.300049 251.300003 H 1269.300049 V 283.900002 H 1231.300049 V 251.300003 Z" transform="matrix(0.7376000285148621, -0.6751999855041504, 0.6751999855041504, 0.7376000285148621, 147.33959960937494, 914.4130859375)" class="st41" style="fill: rgb(187, 222, 176);"/><path d="M 1253.300049 275.399994 H 1291.300049 V 307.999992 H 1253.300049 V 275.399994 Z" transform="matrix(0.7376000285148621, -0.6751999855041504, 0.6751999855041504, 0.7376000285148621, 136.87959289550776, 935.5828247070312)" class="st42" style="fill: rgb(212, 234, 205);"/><path d="M 1275.300049 299.399994 H 1313.300049 V 331.999992 H 1275.300049 V 299.399994 Z" transform="matrix(0.7376000285148621, -0.6751999855041504, 0.6751999855041504, 0.7376000285148621, 126.41970062255854, 956.7523803710938)" class="st43" style="fill: rgb(238, 246, 235);"/><path class="st7" d="M1331,348.3l-7.5,6.9c-5.7,5.2-14.5,4.8-19.7-0.9l-12.6-13.8l28-25.6l12.6,13.8&#10;&#9;&#9;&#9;C1337.1,334.4,1336.7,343.2,1331,348.3z" style="fill: rgb(255, 255, 255);" transform="matrix(1, 0, 0, 1, 3.637978807091713e-12, 9.237055564881302e-13)"/><path d="M 1317.999951 352.799988 A 4.3 4.3 0 0 1 1313.699951 357.099988 A 4.3 4.3 0 0 1 1309.399951 352.799988 A 4.3 4.3 0 0 1 1313.699951 348.499988 A 4.3 4.3 0 0 1 1317.999951 352.799988 Z" class="st8" style="fill: rgb(188, 190, 192);" transform="matrix(1, 0, 0, 1, 3.637978807091713e-12, 9.237055564881302e-13)"/><path d="M 1316.799951 352.799988 A 3.1 3.1 0 0 1 1313.699951 355.899988 A 3.1 3.1 0 0 1 1310.599951 352.799988 A 3.1 3.1 0 0 1 1313.699951 349.699988 A 3.1 3.1 0 0 1 1316.799951 352.799988 Z" class="st9" style="fill: rgb(128, 130, 133);" transform="matrix(1, 0, 0, 1, 3.637978807091713e-12, 9.237055564881302e-13)"/><path class="st44" d="M1222.6,150.6l-32.2,20.1l-9.9-15.9c-4.1-6.5-2.1-15.1,4.4-19.2l8.6-5.4c6.5-4.1,15.1-2.1,19.2,4.4&#10;&#9;&#9;&#9;L1222.6,150.6z" style="fill: rgb(75, 185, 104);" transform="matrix(1, 0, 0, 1, 3.637978807091713e-12, 9.237055564881302e-13)"/><path d="M 1196.199951 158.199997 H 1234.199951 V 190.799995 H 1196.199951 V 158.199997 Z" transform="matrix(0.8486000299453735, -0.5291000008583069, 0.5291000008583069, 0.8486000299453735, 91.6911010742187, 669.33837890625)" class="st45" style="fill: rgb(108, 193, 126);"/><path d="M 1213.400024 185.800003 H 1251.400024 V 218.400002 H 1213.400024 V 185.800003 Z" transform="matrix(0.8486000299453735, -0.5291000008583069, 0.5291000008583069, 0.8486000299453735, 79.66840362548828, 682.6519775390625)" class="st46" style="fill: rgb(136, 202, 145);"/><path d="M 1230.699951 213.5 H 1268.699951 V 246.099998 H 1230.699951 V 213.5 Z" transform="matrix(0.8486000299453735, -0.5291000008583069, 0.5291000008583069, 0.8486000299453735, 67.64579772949219, 695.9661865234375)" class="st47" style="fill: rgb(162, 212, 166);"/><path d="M 1247.900024 241.199997 H 1285.900024 V 273.799995 H 1247.900024 V 241.199997 Z" transform="matrix(0.8486000299453735, -0.5291000008583069, 0.5291000008583069, 0.8486000299453735, 55.6234016418457, 709.2811279296875)" class="st48" style="fill: rgb(188, 223, 188);"/><path d="M 1265.199951 268.799988 H 1303.199951 V 301.399986 H 1265.199951 V 268.799988 Z" transform="matrix(0.8486000299453735, -0.5291000008583069, 0.5291000008583069, 0.8486000299453735, 43.599300384521484, 722.5916137695312)" class="st49" style="fill: rgb(213, 234, 211);"/><path d="M 1282.400024 296.5 H 1320.400024 V 329.099998 H 1282.400024 V 296.5 Z" transform="matrix(0.8486000299453735, -0.5291000008583069, 0.5291000008583069, 0.8486000299453735, 31.575700759887695, 735.9030151367188)" class="st43" style="fill: rgb(238, 246, 235);"/><path class="st7" d="M1331.6,351.6l-8.6,5.4c-6.5,4.1-15.1,2.1-19.2-4.4l-9.9-15.9l32.2-20.1l9.9,15.9&#10;&#9;&#9;&#9;C1340.1,339,1338.1,347.5,1331.6,351.6z" style="fill: rgb(255, 255, 255);" transform="matrix(1, 0, 0, 1, 3.637978807091713e-12, 9.237055564881302e-13)"/><path d="M 1317.999951 352.799988 A 4.3 4.3 0 0 1 1313.699951 357.099988 A 4.3 4.3 0 0 1 1309.399951 352.799988 A 4.3 4.3 0 0 1 1313.699951 348.499988 A 4.3 4.3 0 0 1 1317.999951 352.799988 Z" class="st8" style="fill: rgb(188, 190, 192);" transform="matrix(1, 0, 0, 1, 3.637978807091713e-12, 9.237055564881302e-13)"/><path d="M 1316.799951 352.799988 A 3.1 3.1 0 0 1 1313.699951 355.899988 A 3.1 3.1 0 0 1 1310.599951 352.799988 A 3.1 3.1 0 0 1 1313.699951 349.699988 A 3.1 3.1 0 0 1 1316.799951 352.799988 Z" class="st9" style="fill: rgb(128, 130, 133);" transform="matrix(1, 0, 0, 1, 3.637978807091713e-12, 9.237055564881302e-13)"/><path class="st50" d="M1261.1,137.4l-35.3,13.9l-6.8-17.4c-2.8-7.2,0.7-15.2,7.9-18l9.5-3.7c7.2-2.8,15.2,0.7,18,7.9L1261.1,137.4&#10;&#9;&#9;&#9;z" style="fill: rgb(49, 101, 176);" transform="matrix(1, 0, 0, 1, 3.637978807091713e-12, 9.237055564881302e-13)"/><path d="M 1230.400024 143.199997 H 1268.400024 V 175.799995 H 1230.400024 V 143.199997 Z" transform="matrix(0.9310001134872437, -0.3650999963283539, 0.3650999963283539, 0.9310001134872437, 28.0314998626709, 467.2148132324218)" class="st51" style="fill: rgb(84, 117, 185);"/><path d="M 1242.300049 173.5 H 1280.300049 V 206.099998 H 1242.300049 V 173.5 Z" transform="matrix(0.9310001134872437, -0.3650999963283539, 0.3650999963283539, 0.9310001134872437, 17.7731990814209, 473.65759277343744)" class="st52" style="fill: rgb(112, 136, 196);"/><path d="M 1254.199951 203.899994 H 1292.199951 V 236.499992 H 1254.199951 V 203.899994 Z" transform="matrix(0.9310001134872437, -0.3650999963283539, 0.3650999963283539, 0.9310001134872437, 7.514299869537297, 480.09729003906244)" class="st52" style="fill: rgb(112, 136, 196);"/><path d="M 1266.099976 234.199997 H 1304.099976 V 266.799995 H 1266.099976 V 234.199997 Z" transform="matrix(0.9310001134872437, -0.3650999963283539, 0.3650999963283539, 0.9310001134872437, -2.74429988861084, 486.5385131835937)" class="st53" style="fill: rgb(170, 184, 222);"/><path d="M 1278 264.600006 H 1316 V 297.200005 H 1278 V 264.600006 Z" transform="matrix(0.9310001134872437, -0.3650999963283539, 0.3650999963283539, 0.9310001134872437, -13.002900123596191, 492.9797973632812)" class="st54" style="fill: rgb(203, 212, 236);"/><path d="M 1289.900024 294.899994 H 1327.900024 V 327.499992 H 1289.900024 V 294.899994 Z" transform="matrix(0.9310001134872437, -0.3650999963283539, 0.3650999963283539, 0.9310001134872437, -23.261499404907227, 499.4211120605468)" class="st55" style="fill: rgb(238, 244, 251);"/><path class="st7" d="M1331.5,354.9l-9.5,3.7c-7.2,2.8-15.2-0.7-18-7.9l-6.8-17.4l35.3-13.9l6.8,17.4&#10;&#9;&#9;&#9;C1342.2,344,1338.6,352.1,1331.5,354.9z" style="fill: rgb(255, 255, 255);" transform="matrix(1, 0, 0, 1, 3.637978807091713e-12, 9.237055564881302e-13)"/><path d="M 1317.999951 352.799988 A 4.3 4.3 0 0 1 1313.699951 357.099988 A 4.3 4.3 0 0 1 1309.399951 352.799988 A 4.3 4.3 0 0 1 1313.699951 348.499988 A 4.3 4.3 0 0 1 1317.999951 352.799988 Z" class="st8" style="fill: rgb(188, 190, 192);" transform="matrix(1, 0, 0, 1, 3.637978807091713e-12, 9.237055564881302e-13)"/><path d="M 1316.799951 352.799988 A 3.1 3.1 0 0 1 1313.699951 355.899988 A 3.1 3.1 0 0 1 1310.599951 352.799988 A 3.1 3.1 0 0 1 1313.699951 349.699988 A 3.1 3.1 0 0 1 1316.799951 352.799988 Z" class="st9" style="fill: rgb(128, 130, 133);" transform="matrix(1, 0, 0, 1, 3.637978807091713e-12, 9.237055564881302e-13)"/><path class="st56" d="M1301.4,131.4l-37.3,7.2l-3.5-18.4c-1.5-7.5,3.5-14.8,11-16.3l10-1.9c7.5-1.5,14.8,3.5,16.3,11L1301.4,131.4&#10;&#9;&#9;&#9;z" style="fill: rgb(53, 69, 156);" transform="matrix(1, 0, 0, 1, 3.637978807091713e-12, 9.237055564881302e-13)"/><path d="M 1266.800049 134.699997 H 1304.800049 V 167.299995 H 1266.800049 V 134.699997 Z" transform="matrix(0.9819999933242798, -0.18890002369880676, 0.18890002369880676, 0.9819999933242798, -5.373499870300293, 245.614501953125)" class="st57" style="fill: rgb(81, 89, 167);"/><path d="M 1273 166.699997 H 1311 V 199.299995 H 1273 V 166.699997 Z" transform="matrix(0.9819999933242798, -0.18890002369880676, 0.18890002369880676, 0.9819999933242798, -11.309599876403809, 247.3527069091797)" class="st58" style="fill: rgb(107, 111, 180);"/><path d="M 1279.099976 198.699997 H 1317.099976 V 231.299995 H 1279.099976 V 198.699997 Z" transform="matrix(0.9819999933242798, -0.18890002369880676, 0.18890002369880676, 0.9819999933242798, -17.2455997467041, 249.09019470214844)" class="st59" style="fill: rgb(133, 135, 193);"/><path d="M 1285.300049 230.699997 H 1323.300049 V 263.299995 H 1285.300049 V 230.699997 Z" transform="matrix(0.9819999933242798, -0.18890002369880676, 0.18890002369880676, 0.9819999933242798, -23.181400299072266, 250.82969665527344)" class="st60" style="fill: rgb(162, 163, 209);"/><path d="M 1291.400024 262.700012 H 1329.400024 V 295.300011 H 1291.400024 V 262.700012 Z" transform="matrix(0.9819999933242798, -0.18890002369880676, 0.18890002369880676, 0.9819999933242798, -29.117300033569336, 252.56930541992188)" class="st61" style="fill: rgb(194, 196, 227);"/><path d="M 1297.599976 294.700012 H 1335.599976 V 327.300011 H 1297.599976 V 294.700012 Z" transform="matrix(0.9819999933242798, -0.18890002369880676, 0.18890002369880676, 0.9819999933242798, -35.05329895019531, 254.3123016357422)" class="st62" style="fill: rgb(230, 232, 245);"/><path class="st7" d="M1330.8,358.1l-10,1.9c-7.5,1.5-14.8-3.5-16.3-11l-3.5-18.4l37.3-7.2l3.5,18.4&#10;&#9;&#9;&#9;C1343.3,349.4,1338.3,356.6,1330.8,358.1z" style="fill: rgb(255, 255, 255);" transform="matrix(1, 0, 0, 1, 3.637978807091713e-12, 9.237055564881302e-13)"/><path d="M 1317.999951 352.799988 A 4.3 4.3 0 0 1 1313.699951 357.099988 A 4.3 4.3 0 0 1 1309.399951 352.799988 A 4.3 4.3 0 0 1 1313.699951 348.499988 A 4.3 4.3 0 0 1 1317.999951 352.799988 Z" class="st8" style="fill: rgb(188, 190, 192);" transform="matrix(1, 0, 0, 1, 3.637978807091713e-12, 9.237055564881302e-13)"/><path d="M 1316.799951 352.799988 A 3.1 3.1 0 0 1 1313.699951 355.899988 A 3.1 3.1 0 0 1 1310.599951 352.799988 A 3.1 3.1 0 0 1 1313.699951 349.699988 A 3.1 3.1 0 0 1 1316.799951 352.799988 Z" class="st9" style="fill: rgb(128, 130, 133);" transform="matrix(1, 0, 0, 1, 3.637978807091713e-12, 9.237055564881302e-13)"/><path class="st63" d="M1342,132.9l-38,0.2l-0.1-18.7c0-7.7,6.1-13.9,13.8-14l10.2-0.1c7.7,0,13.9,6.1,14,13.8L1342,132.9z" style="fill: rgb(72, 62, 152);" transform="matrix(1, 0, 0, 1, 3.637978807091713e-12, 9.237055564881302e-13)"/><path d="M 1304.099976 133 H 1342.099976 V 165.599998 H 1304.099976 V 133 Z" transform="matrix(1, -0.006312803365290165, 0.006312803365290165, 1, -0.916100025177002, 8.355600357055664)" class="st64" style="fill: rgb(95, 84, 164);"/><path d="M 1304.400024 165.600006 H 1342.400024 V 198.200005 H 1304.400024 V 165.600006 Z" transform="matrix(1, -0.0063135926611721516, 0.0063135926611721516, 1, -1.121999979019165, 8.358599662780762)" class="st65" style="fill: rgb(118, 106, 176);"/><path d="M 1304.599976 198.199997 H 1342.599976 V 230.799995 H 1304.599976 V 198.199997 Z" transform="matrix(1, -0.006315435748547316, 0.006315435748547316, 1, -1.3281999826431274, 8.36299991607666)" class="st66" style="fill: rgb(141, 130, 189);"/><path d="M 1304.800049 230.800003 H 1342.800049 V 263.400002 H 1304.800049 V 230.800003 Z" transform="matrix(1, -0.006312803365290165, 0.006312803365290165, 1, -1.533400058746338, 8.361499786376953)" class="st67" style="fill: rgb(168, 158, 205);"/><path d="M 1305 263.399994 H 1343 V 295.999992 H 1305 V 263.399994 Z" transform="matrix(1, -0.006312803365290165, 0.006312803365290165, 1, -1.7392001152039143, 8.36340045928955)" class="st68" style="fill: rgb(197, 190, 222);"/><path d="M 1305.199951 296 H 1343.199951 V 328.599998 H 1305.199951 V 296 Z" transform="matrix(1, -0.006312803365290165, 0.006312803365290165, 1, -1.945000171661377, 8.365400314331055)" class="st69" style="fill: rgb(231, 226, 241);"/><path class="st7" d="M1329.5,361.1l-10.2,0.1c-7.7,0-13.9-6.1-14-13.8l-0.1-18.7l38-0.2l0.1,18.7&#10;&#9;&#9;&#9;C1343.4,354.8,1337.2,361.1,1329.5,361.1z" style="fill: rgb(255, 255, 255);" transform="matrix(1, 0, 0, 1, 3.637978807091713e-12, 9.237055564881302e-13)"/><path d="M 1317.999951 352.799988 A 4.3 4.3 0 0 1 1313.699951 357.099988 A 4.3 4.3 0 0 1 1309.399951 352.799988 A 4.3 4.3 0 0 1 1313.699951 348.499988 A 4.3 4.3 0 0 1 1317.999951 352.799988 Z" class="st8" style="fill: rgb(188, 190, 192);" transform="matrix(1, 0, 0, 1, 3.637978807091713e-12, 9.237055564881302e-13)"/><path d="M 1316.799951 352.799988 A 3.1 3.1 0 0 1 1313.699951 355.899988 A 3.1 3.1 0 0 1 1310.599951 352.799988 A 3.1 3.1 0 0 1 1313.699951 349.699988 A 3.1 3.1 0 0 1 1316.799951 352.799988 Z" class="st9" style="fill: rgb(128, 130, 133);" transform="matrix(1, 0, 0, 1, 3.637978807091713e-12, 9.237055564881302e-13)"/><path class="st70" d="M1381.7,141.8l-37.4-6.7l3.3-18.4c1.4-7.6,8.6-12.6,16.1-11.2l10,1.8c7.6,1.4,12.6,8.6,11.2,16.1&#10;&#9;&#9;&#9;L1381.7,141.8z" style="fill: rgb(120, 60, 151);" transform="matrix(1, 0, 0, 1, 3.637978807091713e-12, 9.237055564881302e-13)"/><path d="M 1341.199951 138.199997 H 1379.199951 V 170.799995 H 1341.199951 V 138.199997 Z" transform="matrix(0.9843000173568726, 0.17650000751018524, -0.17650000751018524, 0.9843000173568726, 48.609798431396484, -237.62860107421875)" class="st71" style="fill: rgb(135, 84, 162);"/><path d="M 1335.400024 170.199997 H 1373.400024 V 202.799995 H 1335.400024 V 170.199997 Z" transform="matrix(0.9843000173568726, 0.17650000751018524, -0.17650000751018524, 0.9843000173568726, 54.18239974975586, -236.1103057861328)" class="st72" style="fill: rgb(151, 108, 175);"/><path d="M 1329.699951 202.300003 H 1367.699951 V 234.900002 H 1329.699951 V 202.300003 Z" transform="matrix(0.9843000173568726, 0.17650000751018524, -0.17650000751018524, 0.9843000173568726, 59.755699157714844, -234.59390258789062)" class="st73" style="fill: rgb(170, 132, 188);"/><path d="M 1323.900024 234.399994 H 1361.900024 V 266.999992 H 1323.900024 V 234.399994 Z" transform="matrix(0.9843000173568726, 0.17650000751018524, -0.17650000751018524, 0.9843000173568726, 65.3281021118164, -233.0749053955078)" class="st74" style="fill: rgb(191, 159, 203);"/><path d="M 1318.199951 266.5 H 1356.199951 V 299.099998 H 1318.199951 V 266.5 Z" transform="matrix(0.9843000173568726, 0.17650000751018524, -0.17650000751018524, 0.9843000173568726, 70.90049743652344, -231.55589294433594)" class="st75" style="fill: rgb(213, 189, 219);"/><path d="M 1312.400024 298.600006 H 1350.400024 V 331.200005 H 1312.400024 V 298.600006 Z" transform="matrix(0.9843000173568726, 0.17650000751018524, -0.17650000751018524, 0.9843000173568726, 76.4728012084961, -230.03689575195312)" class="st76" style="fill: rgb(239, 221, 236);"/><path class="st7" d="M1327.8,363.9l-10-1.8c-7.6-1.4-12.6-8.6-11.2-16.1l3.3-18.4l37.4,6.7l-3.3,18.4&#10;&#9;&#9;&#9;C1342.5,360.2,1335.3,365.3,1327.8,363.9z" style="fill: rgb(255, 255, 255);" transform="matrix(1, 0, 0, 1, 3.637978807091713e-12, 9.237055564881302e-13)"/><path d="M 1317.999951 352.799988 A 4.3 4.3 0 0 1 1313.699951 357.099988 A 4.3 4.3 0 0 1 1309.399951 352.799988 A 4.3 4.3 0 0 1 1313.699951 348.499988 A 4.3 4.3 0 0 1 1317.999951 352.799988 Z" class="st8" style="fill: rgb(188, 190, 192);" transform="matrix(1, 0, 0, 1, 3.637978807091713e-12, 9.237055564881302e-13)"/><path d="M 1316.799951 352.799988 A 3.1 3.1 0 0 1 1313.699951 355.899988 A 3.1 3.1 0 0 1 1310.599951 352.799988 A 3.1 3.1 0 0 1 1313.699951 349.699988 A 3.1 3.1 0 0 1 1316.799951 352.799988 Z" class="st9" style="fill: rgb(128, 130, 133);" transform="matrix(1, 0, 0, 1, 3.637978807091713e-12, 9.237055564881302e-13)"/></g></svg>