<?xml version="1.0" encoding="UTF-8"?><svg id="Layer_1" xmlns="http://www.w3.org/2000/svg" viewBox="0 0 885.98 158.31"><defs><style>.cls-1{fill:#0866ff;}</style></defs><path class="cls-1" d="m779.29,155.68h29.48v-47.7l41.14,47.7h36.07l-47.89-54.97,40.91-47.66h-32.83l-37.4,43.93V0l-29.48,3.86v151.82Zm-67.99-105.26c-32.73,0-55.46,22.01-55.46,53.93s22.73,53.93,55.46,53.93,55.46-22.01,55.46-53.93-22.73-53.93-55.46-53.93h0Zm0,82.73c-15.16,0-25.55-11.72-25.55-28.8s10.39-28.8,25.55-28.8,25.55,11.72,25.55,28.8-10.39,28.8-25.55,28.8Zm-119.81-82.73c-32.73,0-55.46,22.01-55.46,53.93s22.73,53.93,55.46,53.93,55.46-22.01,55.46-53.93-22.73-53.93-55.46-53.93h0Zm0,82.73c-15.16,0-25.55-11.72-25.55-28.8s10.39-28.8,25.55-28.8,25.55,11.72,25.55,28.8-10.39,28.8-25.55,28.8Zm-112.83-82.73c-13.64,0-24.93,5.36-32.01,15.16V0l-29.51,3.83v151.82h26.17l.52-15.84c6.98,11.82,19.48,18.47,34.84,18.47,27.99,0,48.47-22.73,48.47-53.93s-20.39-53.93-48.47-53.93h0Zm-6.98,82.73c-15.16,0-25.55-11.72-25.55-28.8s10.39-28.8,25.55-28.8,25.55,11.72,25.55,28.8-10.39,28.8-25.55,28.8Zm-113.64,1.33c-15.65,0-26.88-7.27-30.71-19.81h72.63c.71-3.83,1.2-8.38,1.2-11.43,0-33.02-18.48-52.82-49.51-52.82s-53.02,22.01-53.02,53.93,22.73,53.93,56.46,53.93c17.47,0,34.45-5.84,45.07-15.55l-10.62-18.7c-10.29,7.11-20.39,10.45-31.49,10.45h0Zm-6.59-61.14c13.64,0,22.34,8.28,22.34,21.1v.1h-47.08c2.83-13.6,11.62-21.2,24.74-21.2h0Zm-98.99,84.97c15.26,0,30.2-5.84,40.71-15.97l-11.53-19.38c-8.18,6.36-17.47,9.8-26.27,9.8-16.36,0-27.27-11.43-27.27-28.38s10.91-28.38,27.27-28.38c8.08,0,16.88,2.92,24.03,8.09l11.72-19.81c-9.48-8.57-24.16-13.83-38.7-13.83-32.01,0-54.64,22.34-54.64,53.93.03,31.49,22.66,53.93,54.68,53.93Zm-93.73-105.26l-.52,15.98c-6.98-11.92-19.48-18.57-34.84-18.57-28.09,0-48.47,22.73-48.47,53.93s20.52,53.93,48.48,53.93c15.36,0,27.89-6.66,34.84-18.47l.52,15.84h26.17V53.05h-26.17Zm-28.38,80.1c-15.16,0-25.55-11.72-25.55-28.8s10.39-28.8,25.55-28.8,25.55,11.72,25.55,28.8-10.42,28.8-25.55,28.8h0Zm-57.66-79.91h-26.53v-8.77c0-13.12,5.13-18.15,18.44-18.15,4.12,0,7.47.1,9.38.29V4.12c-3.64-1.01-12.5-2.01-17.63-2.01-27.11,0-39.61,12.79-39.61,40.42v10.68H0v24.81h16.75v77.63h29.45v-77.6h21.95l4.54-24.8Z"/></svg>