<?xml version="1.0" encoding="UTF-8"?><svg id="Layer_1" xmlns="http://www.w3.org/2000/svg" viewBox="0 0 50 50"><defs><style>.cls-1{fill:#333232;}</style></defs><path class="cls-1" d="m25,39.28c-2.59,0-5.16-.35-7.63-1.05-2.4-.68-4.69-1.68-6.83-2.97-4.15-2.51-7.59-6.06-9.96-10.28.97-1.73,2.13-3.35,3.44-4.84,1.29-1.46,2.73-2.78,4.29-3.94l5.88,4.62c-.51,1.33-.77,2.73-.77,4.17,0,6.39,5.2,11.59,11.59,11.59,2.39,0,4.67-.71,6.61-2.07l3.63,2.85c-1.47.58-2.99,1.03-4.53,1.35-1.87.39-3.79.58-5.71.58Zm10.81-10.1c.52-1.34.78-2.75.78-4.2,0-6.39-5.2-11.59-11.59-11.59-2.4,0-4.69.72-6.64,2.09l-3.63-2.85c1.47-.58,3-1.04,4.55-1.36,1.87-.39,3.8-.59,5.73-.59,2.59,0,5.16.35,7.63,1.05,2.4.68,4.69,1.68,6.83,2.97,4.15,2.51,7.59,6.06,9.96,10.28-.97,1.73-2.14,3.36-3.46,4.85-1.29,1.46-2.74,2.79-4.31,3.95l-5.86-4.6Z"/><path class="cls-1" d="m25,11.17c2.55,0,5.07.35,7.5,1.03,2.35.67,4.61,1.65,6.71,2.91,4,2.42,7.32,5.81,9.65,9.85-.93,1.61-2.02,3.13-3.26,4.52-1.19,1.34-2.51,2.57-3.93,3.65l-5.27-4.14c.46-1.29.69-2.64.69-4.03,0-6.67-5.42-12.09-12.09-12.09-2.38,0-4.65.68-6.62,1.97l-2.65-2.08c1.19-.43,2.41-.77,3.64-1.03,1.84-.38,3.73-.58,5.63-.58m-16.7,5.65l5.29,4.15c-.45,1.28-.68,2.62-.68,4,0,6.67,5.42,12.09,12.09,12.09,2.37,0,4.63-.67,6.59-1.95l2.64,2.08c-1.18.42-2.4.76-3.62,1.02-1.83.38-3.72.57-5.61.57-2.55,0-5.07-.35-7.5-1.03-2.35-.67-4.61-1.65-6.71-2.91-4-2.42-7.32-5.81-9.65-9.85.92-1.61,2.01-3.12,3.24-4.51,1.18-1.34,2.49-2.56,3.91-3.64m16.7-6.65c-4,0-7.8.82-11.25,2.31l4.6,3.61c1.85-1.39,4.16-2.22,6.65-2.22,6.13,0,11.09,4.97,11.09,11.09,0,1.55-.32,3.02-.89,4.36l6.45,5.07c3.43-2.48,6.29-5.7,8.34-9.43-4.85-8.82-14.23-14.8-25-14.8h0Zm-16.69,5.39c-3.42,2.47-6.27,5.69-8.31,9.41,4.85,8.82,14.23,14.8,25,14.8,3.98,0,7.77-.82,11.22-2.29l-4.59-3.61c-1.85,1.38-4.14,2.19-6.62,2.19-6.13,0-11.09-4.97-11.09-11.09,0-1.53.31-3,.88-4.33l-6.47-5.08h0Z"/><path class="cls-1" d="m18.15,23.3l10.1,7.93c-.97.51-2.08.79-3.25.79-3.89,0-7.05-3.16-7.05-7.05,0-.58.07-1.14.2-1.68Z"/><path class="cls-1" d="m32.05,24.98c0,.59-.07,1.17-.21,1.72l-10.12-7.95c.98-.52,2.1-.81,3.29-.81,3.89,0,7.05,3.16,7.05,7.05Z"/><rect class="cls-1" x="23.5" y="-3.2" width="3" height="56.39" transform="translate(-10.1 29.22) rotate(-51.86)"/></svg>