<?xml version="1.0" encoding="UTF-8"?>
<svg xmlns="http://www.w3.org/2000/svg" xmlns:xlink="http://www.w3.org/1999/xlink" width="4001" height="2501" viewBox="0 0 4001 2501">
<path fill-rule="evenodd" fill="rgb(80.076599%, 0.389099%, 0.389099%)" fill-opacity="1" d="M 0.839844 0.160156 L 4000.839844 0.160156 L 4000.839844 192.46875 L 0.839844 192.46875 L 0.839844 0.160156 "/>
<path fill-rule="evenodd" fill="rgb(80.076599%, 0.389099%, 0.389099%)" fill-opacity="1" d="M 0.839844 384.78125 L 4000.839844 384.78125 L 4000.839844 577.078125 L 0.839844 577.078125 L 0.839844 384.78125 "/>
<path fill-rule="evenodd" fill="rgb(80.076599%, 0.389099%, 0.389099%)" fill-opacity="1" d="M 0.839844 769.390625 L 4000.839844 769.390625 L 4000.839844 961.699219 L 0.839844 961.699219 L 0.839844 769.390625 "/>
<path fill-rule="evenodd" fill="rgb(80.076599%, 0.389099%, 0.389099%)" fill-opacity="1" d="M 0.839844 1154.011719 L 4000.839844 1154.011719 L 4000.839844 1346.308594 L 0.839844 1346.308594 L 0.839844 1154.011719 "/>
<path fill-rule="evenodd" fill="rgb(80.076599%, 0.389099%, 0.389099%)" fill-opacity="1" d="M 0.839844 1538.621094 L 4000.839844 1538.621094 L 4000.839844 1730.929688 L 0.839844 1730.929688 L 0.839844 1538.621094 "/>
<path fill-rule="evenodd" fill="rgb(80.076599%, 0.389099%, 0.389099%)" fill-opacity="1" d="M 0.839844 1923.238281 L 4000.839844 1923.238281 L 4000.839844 2115.546875 L 0.839844 2115.546875 L 0.839844 1923.238281 "/>
<path fill-rule="evenodd" fill="rgb(80.076599%, 0.389099%, 0.389099%)" fill-opacity="1" d="M 0.839844 2307.851562 L 4000.839844 2307.851562 L 4000.839844 2500.160156 L 0.839844 2500.160156 L 0.839844 2307.851562 "/>
<path fill-rule="evenodd" fill="rgb(0%, 15.281677%, 40.380859%)" fill-opacity="1" d="M 0.839844 0.160156 L 1724.539062 0.160156 L 1724.539062 1346.308594 L 0.839844 1346.308594 L 0.839844 0.160156 "/>
<path fill-rule="evenodd" fill="rgb(100%, 100%, 100%)" fill-opacity="1" d="M 118.203125 63.378906 L 133.90625 98.699219 L 172.351562 102.71875 L 143.613281 128.570312 L 151.671875 166.371094 L 118.203125 147.03125 L 84.738281 166.371094 L 92.796875 128.570312 L 64.058594 102.71875 L 102.503906 98.699219 L 118.203125 63.378906 "/>
<path fill-rule="evenodd" fill="rgb(100%, 100%, 100%)" fill-opacity="1" d="M 304.324219 63.378906 L 320.027344 98.699219 L 358.472656 102.71875 L 329.734375 128.570312 L 337.789062 166.371094 L 304.324219 147.03125 L 270.859375 166.371094 L 278.917969 128.570312 L 250.179688 102.71875 L 288.621094 98.699219 L 304.324219 63.378906 "/>
<path fill-rule="evenodd" fill="rgb(100%, 100%, 100%)" fill-opacity="1" d="M 490.445312 63.378906 L 506.148438 98.699219 L 544.59375 102.71875 L 515.855469 128.570312 L 523.910156 166.371094 L 490.445312 147.03125 L 456.980469 166.371094 L 465.039062 128.570312 L 436.300781 102.71875 L 474.742188 98.699219 L 490.445312 63.378906 "/>
<path fill-rule="evenodd" fill="rgb(100%, 100%, 100%)" fill-opacity="1" d="M 676.566406 63.378906 L 692.269531 98.699219 L 730.714844 102.71875 L 701.972656 128.570312 L 710.03125 166.371094 L 676.566406 147.03125 L 643.101562 166.371094 L 651.160156 128.570312 L 622.421875 102.71875 L 660.863281 98.699219 L 676.566406 63.378906 "/>
<path fill-rule="evenodd" fill="rgb(100%, 100%, 100%)" fill-opacity="1" d="M 862.6875 63.378906 L 878.390625 98.699219 L 916.835938 102.71875 L 888.09375 128.570312 L 896.152344 166.371094 L 862.6875 147.03125 L 829.222656 166.371094 L 837.28125 128.570312 L 808.539062 102.71875 L 846.984375 98.699219 L 862.6875 63.378906 "/>
<path fill-rule="evenodd" fill="rgb(100%, 100%, 100%)" fill-opacity="1" d="M 1048.808594 63.378906 L 1064.511719 98.699219 L 1102.960938 102.71875 L 1074.21875 128.570312 L 1082.269531 166.371094 L 1048.808594 147.03125 L 1015.339844 166.371094 L 1023.398438 128.570312 L 994.660156 102.71875 L 1033.109375 98.699219 L 1048.808594 63.378906 "/>
<path fill-rule="evenodd" fill="rgb(100%, 100%, 100%)" fill-opacity="1" d="M 1234.929688 63.378906 L 1250.628906 98.699219 L 1289.078125 102.71875 L 1260.339844 128.570312 L 1268.390625 166.371094 L 1234.929688 147.03125 L 1201.460938 166.371094 L 1209.519531 128.570312 L 1180.78125 102.71875 L 1219.230469 98.699219 L 1234.929688 63.378906 "/>
<path fill-rule="evenodd" fill="rgb(100%, 100%, 100%)" fill-opacity="1" d="M 1421.050781 63.378906 L 1436.75 98.699219 L 1475.199219 102.71875 L 1446.460938 128.570312 L 1454.511719 166.371094 L 1421.050781 147.03125 L 1387.589844 166.371094 L 1395.640625 128.570312 L 1366.898438 102.71875 L 1405.351562 98.699219 L 1421.050781 63.378906 "/>
<path fill-rule="evenodd" fill="rgb(100%, 100%, 100%)" fill-opacity="1" d="M 1607.171875 63.378906 L 1622.871094 98.699219 L 1661.320312 102.71875 L 1632.578125 128.570312 L 1640.640625 166.371094 L 1607.171875 147.03125 L 1573.710938 166.371094 L 1581.761719 128.570312 L 1553.019531 102.71875 L 1591.46875 98.699219 L 1607.171875 63.378906 "/>
<path fill-rule="evenodd" fill="rgb(100%, 100%, 100%)" fill-opacity="1" d="M 211.265625 249.5 L 226.96875 284.820312 L 265.410156 288.839844 L 236.671875 314.691406 L 244.730469 352.488281 L 211.265625 333.148438 L 177.800781 352.488281 L 185.859375 314.691406 L 157.117188 288.839844 L 195.5625 284.820312 L 211.265625 249.5 "/>
<path fill-rule="evenodd" fill="rgb(100%, 100%, 100%)" fill-opacity="1" d="M 397.386719 249.5 L 413.089844 284.820312 L 451.53125 288.839844 L 422.792969 314.691406 L 430.851562 352.488281 L 397.386719 333.148438 L 363.921875 352.488281 L 371.980469 314.691406 L 343.238281 288.839844 L 381.683594 284.820312 L 397.386719 249.5 "/>
<path fill-rule="evenodd" fill="rgb(100%, 100%, 100%)" fill-opacity="1" d="M 583.507812 249.5 L 599.210938 284.820312 L 637.652344 288.839844 L 608.914062 314.691406 L 616.972656 352.488281 L 583.507812 333.148438 L 550.042969 352.488281 L 558.101562 314.691406 L 529.359375 288.839844 L 567.804688 284.820312 L 583.507812 249.5 "/>
<path fill-rule="evenodd" fill="rgb(100%, 100%, 100%)" fill-opacity="1" d="M 769.628906 249.5 L 785.328125 284.820312 L 823.773438 288.839844 L 795.035156 314.691406 L 803.09375 352.488281 L 769.628906 333.148438 L 736.164062 352.488281 L 744.21875 314.691406 L 715.480469 288.839844 L 753.925781 284.820312 L 769.628906 249.5 "/>
<path fill-rule="evenodd" fill="rgb(100%, 100%, 100%)" fill-opacity="1" d="M 955.746094 249.5 L 971.449219 284.820312 L 1009.890625 288.839844 L 981.15625 314.691406 L 989.214844 352.488281 L 955.746094 333.148438 L 922.285156 352.488281 L 930.339844 314.691406 L 901.601562 288.839844 L 940.046875 284.820312 L 955.746094 249.5 "/>
<path fill-rule="evenodd" fill="rgb(100%, 100%, 100%)" fill-opacity="1" d="M 1141.871094 249.5 L 1157.570312 284.820312 L 1196.019531 288.839844 L 1167.28125 314.691406 L 1175.328125 352.488281 L 1141.871094 333.148438 L 1108.398438 352.488281 L 1116.460938 314.691406 L 1087.71875 288.839844 L 1126.171875 284.820312 L 1141.871094 249.5 "/>
<path fill-rule="evenodd" fill="rgb(100%, 100%, 100%)" fill-opacity="1" d="M 1327.988281 249.5 L 1343.691406 284.820312 L 1382.140625 288.839844 L 1353.398438 314.691406 L 1361.449219 352.488281 L 1327.988281 333.148438 L 1294.53125 352.488281 L 1302.578125 314.691406 L 1273.839844 288.839844 L 1312.289062 284.820312 L 1327.988281 249.5 "/>
<path fill-rule="evenodd" fill="rgb(100%, 100%, 100%)" fill-opacity="1" d="M 1514.109375 249.5 L 1529.808594 284.820312 L 1568.261719 288.839844 L 1539.519531 314.691406 L 1547.570312 352.488281 L 1514.109375 333.148438 L 1480.648438 352.488281 L 1488.699219 314.691406 L 1459.960938 288.839844 L 1498.410156 284.820312 L 1514.109375 249.5 "/>
<path fill-rule="evenodd" fill="rgb(100%, 100%, 100%)" fill-opacity="1" d="M 118.203125 435.621094 L 133.90625 470.941406 L 172.351562 474.960938 L 143.613281 500.808594 L 151.671875 538.609375 L 118.203125 519.269531 L 84.738281 538.609375 L 92.796875 500.808594 L 64.058594 474.960938 L 102.503906 470.941406 L 118.203125 435.621094 "/>
<path fill-rule="evenodd" fill="rgb(100%, 100%, 100%)" fill-opacity="1" d="M 304.324219 435.621094 L 320.027344 470.941406 L 358.472656 474.960938 L 329.734375 500.808594 L 337.789062 538.609375 L 304.324219 519.269531 L 270.859375 538.609375 L 278.917969 500.808594 L 250.179688 474.960938 L 288.621094 470.941406 L 304.324219 435.621094 "/>
<path fill-rule="evenodd" fill="rgb(100%, 100%, 100%)" fill-opacity="1" d="M 490.445312 435.621094 L 506.148438 470.941406 L 544.59375 474.960938 L 515.855469 500.808594 L 523.910156 538.609375 L 490.445312 519.269531 L 456.980469 538.609375 L 465.039062 500.808594 L 436.300781 474.960938 L 474.742188 470.941406 L 490.445312 435.621094 "/>
<path fill-rule="evenodd" fill="rgb(100%, 100%, 100%)" fill-opacity="1" d="M 676.566406 435.621094 L 692.269531 470.941406 L 730.714844 474.960938 L 701.972656 500.808594 L 710.03125 538.609375 L 676.566406 519.269531 L 643.101562 538.609375 L 651.160156 500.808594 L 622.421875 474.960938 L 660.863281 470.941406 L 676.566406 435.621094 "/>
<path fill-rule="evenodd" fill="rgb(100%, 100%, 100%)" fill-opacity="1" d="M 862.6875 435.621094 L 878.390625 470.941406 L 916.835938 474.960938 L 888.09375 500.808594 L 896.152344 538.609375 L 862.6875 519.269531 L 829.222656 538.609375 L 837.28125 500.808594 L 808.539062 474.960938 L 846.984375 470.941406 L 862.6875 435.621094 "/>
<path fill-rule="evenodd" fill="rgb(100%, 100%, 100%)" fill-opacity="1" d="M 1048.808594 435.621094 L 1064.511719 470.941406 L 1102.960938 474.960938 L 1074.21875 500.808594 L 1082.269531 538.609375 L 1048.808594 519.269531 L 1015.339844 538.609375 L 1023.398438 500.808594 L 994.660156 474.960938 L 1033.109375 470.941406 L 1048.808594 435.621094 "/>
<path fill-rule="evenodd" fill="rgb(100%, 100%, 100%)" fill-opacity="1" d="M 1234.929688 435.621094 L 1250.628906 470.941406 L 1289.078125 474.960938 L 1260.339844 500.808594 L 1268.390625 538.609375 L 1234.929688 519.269531 L 1201.460938 538.609375 L 1209.519531 500.808594 L 1180.78125 474.960938 L 1219.230469 470.941406 L 1234.929688 435.621094 "/>
<path fill-rule="evenodd" fill="rgb(100%, 100%, 100%)" fill-opacity="1" d="M 1421.050781 435.621094 L 1436.75 470.941406 L 1475.199219 474.960938 L 1446.460938 500.808594 L 1454.511719 538.609375 L 1421.050781 519.269531 L 1387.589844 538.609375 L 1395.640625 500.808594 L 1366.898438 474.960938 L 1405.351562 470.941406 L 1421.050781 435.621094 "/>
<path fill-rule="evenodd" fill="rgb(100%, 100%, 100%)" fill-opacity="1" d="M 1607.171875 435.621094 L 1622.871094 470.941406 L 1661.320312 474.960938 L 1632.578125 500.808594 L 1640.640625 538.609375 L 1607.171875 519.269531 L 1573.710938 538.609375 L 1581.761719 500.808594 L 1553.019531 474.960938 L 1591.46875 470.941406 L 1607.171875 435.621094 "/>
<path fill-rule="evenodd" fill="rgb(100%, 100%, 100%)" fill-opacity="1" d="M 211.265625 621.738281 L 226.96875 657.058594 L 265.410156 661.078125 L 236.671875 686.929688 L 244.730469 724.730469 L 211.265625 705.390625 L 177.800781 724.730469 L 185.859375 686.929688 L 157.117188 661.078125 L 195.5625 657.058594 L 211.265625 621.738281 "/>
<path fill-rule="evenodd" fill="rgb(100%, 100%, 100%)" fill-opacity="1" d="M 397.386719 621.738281 L 413.089844 657.058594 L 451.53125 661.078125 L 422.792969 686.929688 L 430.851562 724.730469 L 397.386719 705.390625 L 363.921875 724.730469 L 371.980469 686.929688 L 343.238281 661.078125 L 381.683594 657.058594 L 397.386719 621.738281 "/>
<path fill-rule="evenodd" fill="rgb(100%, 100%, 100%)" fill-opacity="1" d="M 583.507812 621.738281 L 599.210938 657.058594 L 637.652344 661.078125 L 608.914062 686.929688 L 616.972656 724.730469 L 583.507812 705.390625 L 550.042969 724.730469 L 558.101562 686.929688 L 529.359375 661.078125 L 567.804688 657.058594 L 583.507812 621.738281 "/>
<path fill-rule="evenodd" fill="rgb(100%, 100%, 100%)" fill-opacity="1" d="M 769.628906 621.738281 L 785.328125 657.058594 L 823.773438 661.078125 L 795.035156 686.929688 L 803.09375 724.730469 L 769.628906 705.390625 L 736.164062 724.730469 L 744.21875 686.929688 L 715.480469 661.078125 L 753.925781 657.058594 L 769.628906 621.738281 "/>
<path fill-rule="evenodd" fill="rgb(100%, 100%, 100%)" fill-opacity="1" d="M 955.746094 621.738281 L 971.449219 657.058594 L 1009.890625 661.078125 L 981.15625 686.929688 L 989.214844 724.730469 L 955.746094 705.390625 L 922.285156 724.730469 L 930.339844 686.929688 L 901.601562 661.078125 L 940.046875 657.058594 L 955.746094 621.738281 "/>
<path fill-rule="evenodd" fill="rgb(100%, 100%, 100%)" fill-opacity="1" d="M 1141.871094 621.738281 L 1157.570312 657.058594 L 1196.019531 661.078125 L 1167.28125 686.929688 L 1175.328125 724.730469 L 1141.871094 705.390625 L 1108.398438 724.730469 L 1116.460938 686.929688 L 1087.71875 661.078125 L 1126.171875 657.058594 L 1141.871094 621.738281 "/>
<path fill-rule="evenodd" fill="rgb(100%, 100%, 100%)" fill-opacity="1" d="M 1327.988281 621.738281 L 1343.691406 657.058594 L 1382.140625 661.078125 L 1353.398438 686.929688 L 1361.449219 724.730469 L 1327.988281 705.390625 L 1294.53125 724.730469 L 1302.578125 686.929688 L 1273.839844 661.078125 L 1312.289062 657.058594 L 1327.988281 621.738281 "/>
<path fill-rule="evenodd" fill="rgb(100%, 100%, 100%)" fill-opacity="1" d="M 1514.109375 621.738281 L 1529.808594 657.058594 L 1568.261719 661.078125 L 1539.519531 686.929688 L 1547.570312 724.730469 L 1514.109375 705.390625 L 1480.648438 724.730469 L 1488.699219 686.929688 L 1459.960938 661.078125 L 1498.410156 657.058594 L 1514.109375 621.738281 "/>
<path fill-rule="evenodd" fill="rgb(100%, 100%, 100%)" fill-opacity="1" d="M 118.203125 807.859375 L 133.90625 843.179688 L 172.351562 847.199219 L 143.613281 873.050781 L 151.671875 910.851562 L 118.203125 891.511719 L 84.738281 910.851562 L 92.796875 873.050781 L 64.058594 847.199219 L 102.503906 843.179688 L 118.203125 807.859375 "/>
<path fill-rule="evenodd" fill="rgb(100%, 100%, 100%)" fill-opacity="1" d="M 304.324219 807.859375 L 320.027344 843.179688 L 358.472656 847.199219 L 329.734375 873.050781 L 337.789062 910.851562 L 304.324219 891.511719 L 270.859375 910.851562 L 278.917969 873.050781 L 250.179688 847.199219 L 288.621094 843.179688 L 304.324219 807.859375 "/>
<path fill-rule="evenodd" fill="rgb(100%, 100%, 100%)" fill-opacity="1" d="M 490.445312 807.859375 L 506.148438 843.179688 L 544.59375 847.199219 L 515.855469 873.050781 L 523.910156 910.851562 L 490.445312 891.511719 L 456.980469 910.851562 L 465.039062 873.050781 L 436.300781 847.199219 L 474.742188 843.179688 L 490.445312 807.859375 "/>
<path fill-rule="evenodd" fill="rgb(100%, 100%, 100%)" fill-opacity="1" d="M 676.566406 807.859375 L 692.269531 843.179688 L 730.714844 847.199219 L 701.972656 873.050781 L 710.03125 910.851562 L 676.566406 891.511719 L 643.101562 910.851562 L 651.160156 873.050781 L 622.421875 847.199219 L 660.863281 843.179688 L 676.566406 807.859375 "/>
<path fill-rule="evenodd" fill="rgb(100%, 100%, 100%)" fill-opacity="1" d="M 862.6875 807.859375 L 878.390625 843.179688 L 916.835938 847.199219 L 888.09375 873.050781 L 896.152344 910.851562 L 862.6875 891.511719 L 829.222656 910.851562 L 837.28125 873.050781 L 808.539062 847.199219 L 846.984375 843.179688 L 862.6875 807.859375 "/>
<path fill-rule="evenodd" fill="rgb(100%, 100%, 100%)" fill-opacity="1" d="M 1048.808594 807.859375 L 1064.511719 843.179688 L 1102.960938 847.199219 L 1074.21875 873.050781 L 1082.269531 910.851562 L 1048.808594 891.511719 L 1015.339844 910.851562 L 1023.398438 873.050781 L 994.660156 847.199219 L 1033.109375 843.179688 L 1048.808594 807.859375 "/>
<path fill-rule="evenodd" fill="rgb(100%, 100%, 100%)" fill-opacity="1" d="M 1234.929688 807.859375 L 1250.628906 843.179688 L 1289.078125 847.199219 L 1260.339844 873.050781 L 1268.390625 910.851562 L 1234.929688 891.511719 L 1201.460938 910.851562 L 1209.519531 873.050781 L 1180.78125 847.199219 L 1219.230469 843.179688 L 1234.929688 807.859375 "/>
<path fill-rule="evenodd" fill="rgb(100%, 100%, 100%)" fill-opacity="1" d="M 1421.050781 807.859375 L 1436.75 843.179688 L 1475.199219 847.199219 L 1446.460938 873.050781 L 1454.511719 910.851562 L 1421.050781 891.511719 L 1387.589844 910.851562 L 1395.640625 873.050781 L 1366.898438 847.199219 L 1405.351562 843.179688 L 1421.050781 807.859375 "/>
<path fill-rule="evenodd" fill="rgb(100%, 100%, 100%)" fill-opacity="1" d="M 1607.171875 807.859375 L 1622.871094 843.179688 L 1661.320312 847.199219 L 1632.578125 873.050781 L 1640.640625 910.851562 L 1607.171875 891.511719 L 1573.710938 910.851562 L 1581.761719 873.050781 L 1553.019531 847.199219 L 1591.46875 843.179688 L 1607.171875 807.859375 "/>
<path fill-rule="evenodd" fill="rgb(100%, 100%, 100%)" fill-opacity="1" d="M 211.265625 993.980469 L 226.96875 1029.300781 L 265.410156 1033.320312 L 236.671875 1059.171875 L 244.730469 1096.980469 L 211.265625 1077.628906 L 177.800781 1096.980469 L 185.859375 1059.171875 L 157.117188 1033.320312 L 195.5625 1029.300781 L 211.265625 993.980469 "/>
<path fill-rule="evenodd" fill="rgb(100%, 100%, 100%)" fill-opacity="1" d="M 397.386719 993.980469 L 413.089844 1029.300781 L 451.53125 1033.320312 L 422.792969 1059.171875 L 430.851562 1096.980469 L 397.386719 1077.628906 L 363.921875 1096.980469 L 371.980469 1059.171875 L 343.238281 1033.320312 L 381.683594 1029.300781 L 397.386719 993.980469 "/>
<path fill-rule="evenodd" fill="rgb(100%, 100%, 100%)" fill-opacity="1" d="M 583.507812 993.980469 L 599.210938 1029.300781 L 637.652344 1033.320312 L 608.914062 1059.171875 L 616.972656 1096.980469 L 583.507812 1077.628906 L 550.042969 1096.980469 L 558.101562 1059.171875 L 529.359375 1033.320312 L 567.804688 1029.300781 L 583.507812 993.980469 "/>
<path fill-rule="evenodd" fill="rgb(100%, 100%, 100%)" fill-opacity="1" d="M 769.628906 993.980469 L 785.328125 1029.300781 L 823.773438 1033.320312 L 795.035156 1059.171875 L 803.09375 1096.980469 L 769.628906 1077.628906 L 736.164062 1096.980469 L 744.21875 1059.171875 L 715.480469 1033.320312 L 753.925781 1029.300781 L 769.628906 993.980469 "/>
<path fill-rule="evenodd" fill="rgb(100%, 100%, 100%)" fill-opacity="1" d="M 955.746094 993.980469 L 971.449219 1029.300781 L 1009.890625 1033.320312 L 981.15625 1059.171875 L 989.214844 1096.980469 L 955.746094 1077.628906 L 922.285156 1096.980469 L 930.339844 1059.171875 L 901.601562 1033.320312 L 940.046875 1029.300781 L 955.746094 993.980469 "/>
<path fill-rule="evenodd" fill="rgb(100%, 100%, 100%)" fill-opacity="1" d="M 1141.871094 993.980469 L 1157.570312 1029.300781 L 1196.019531 1033.320312 L 1167.28125 1059.171875 L 1175.328125 1096.980469 L 1141.871094 1077.628906 L 1108.398438 1096.980469 L 1116.460938 1059.171875 L 1087.71875 1033.320312 L 1126.171875 1029.300781 L 1141.871094 993.980469 "/>
<path fill-rule="evenodd" fill="rgb(100%, 100%, 100%)" fill-opacity="1" d="M 1327.988281 993.980469 L 1343.691406 1029.300781 L 1382.140625 1033.320312 L 1353.398438 1059.171875 L 1361.449219 1096.980469 L 1327.988281 1077.628906 L 1294.53125 1096.980469 L 1302.578125 1059.171875 L 1273.839844 1033.320312 L 1312.289062 1029.300781 L 1327.988281 993.980469 "/>
<path fill-rule="evenodd" fill="rgb(100%, 100%, 100%)" fill-opacity="1" d="M 1514.109375 993.980469 L 1529.808594 1029.300781 L 1568.261719 1033.320312 L 1539.519531 1059.171875 L 1547.570312 1096.980469 L 1514.109375 1077.628906 L 1480.648438 1096.980469 L 1488.699219 1059.171875 L 1459.960938 1033.320312 L 1498.410156 1029.300781 L 1514.109375 993.980469 "/>
<path fill-rule="evenodd" fill="rgb(100%, 100%, 100%)" fill-opacity="1" d="M 118.203125 1180.101562 L 133.90625 1215.421875 L 172.351562 1219.441406 L 143.613281 1245.289062 L 151.671875 1283.101562 L 118.203125 1263.75 L 84.738281 1283.101562 L 92.796875 1245.289062 L 64.058594 1219.441406 L 102.503906 1215.421875 L 118.203125 1180.101562 "/>
<path fill-rule="evenodd" fill="rgb(100%, 100%, 100%)" fill-opacity="1" d="M 304.324219 1180.101562 L 320.027344 1215.421875 L 358.472656 1219.441406 L 329.734375 1245.289062 L 337.789062 1283.101562 L 304.324219 1263.75 L 270.859375 1283.101562 L 278.917969 1245.289062 L 250.179688 1219.441406 L 288.621094 1215.421875 L 304.324219 1180.101562 "/>
<path fill-rule="evenodd" fill="rgb(100%, 100%, 100%)" fill-opacity="1" d="M 490.445312 1180.101562 L 506.148438 1215.421875 L 544.59375 1219.441406 L 515.855469 1245.289062 L 523.910156 1283.101562 L 490.445312 1263.75 L 456.980469 1283.101562 L 465.039062 1245.289062 L 436.300781 1219.441406 L 474.742188 1215.421875 L 490.445312 1180.101562 "/>
<path fill-rule="evenodd" fill="rgb(100%, 100%, 100%)" fill-opacity="1" d="M 676.566406 1180.101562 L 692.269531 1215.421875 L 730.714844 1219.441406 L 701.972656 1245.289062 L 710.03125 1283.101562 L 676.566406 1263.75 L 643.101562 1283.101562 L 651.160156 1245.289062 L 622.421875 1219.441406 L 660.863281 1215.421875 L 676.566406 1180.101562 "/>
<path fill-rule="evenodd" fill="rgb(100%, 100%, 100%)" fill-opacity="1" d="M 862.6875 1180.101562 L 878.390625 1215.421875 L 916.835938 1219.441406 L 888.09375 1245.289062 L 896.152344 1283.101562 L 862.6875 1263.75 L 829.222656 1283.101562 L 837.28125 1245.289062 L 808.539062 1219.441406 L 846.984375 1215.421875 L 862.6875 1180.101562 "/>
<path fill-rule="evenodd" fill="rgb(100%, 100%, 100%)" fill-opacity="1" d="M 1048.808594 1180.101562 L 1064.511719 1215.421875 L 1102.960938 1219.441406 L 1074.21875 1245.289062 L 1082.269531 1283.101562 L 1048.808594 1263.75 L 1015.339844 1283.101562 L 1023.398438 1245.289062 L 994.660156 1219.441406 L 1033.109375 1215.421875 L 1048.808594 1180.101562 "/>
<path fill-rule="evenodd" fill="rgb(100%, 100%, 100%)" fill-opacity="1" d="M 1234.929688 1180.101562 L 1250.628906 1215.421875 L 1289.078125 1219.441406 L 1260.339844 1245.289062 L 1268.390625 1283.101562 L 1234.929688 1263.75 L 1201.460938 1283.101562 L 1209.519531 1245.289062 L 1180.78125 1219.441406 L 1219.230469 1215.421875 L 1234.929688 1180.101562 "/>
<path fill-rule="evenodd" fill="rgb(100%, 100%, 100%)" fill-opacity="1" d="M 1421.050781 1180.101562 L 1436.75 1215.421875 L 1475.199219 1219.441406 L 1446.460938 1245.289062 L 1454.511719 1283.101562 L 1421.050781 1263.75 L 1387.589844 1283.101562 L 1395.640625 1245.289062 L 1366.898438 1219.441406 L 1405.351562 1215.421875 L 1421.050781 1180.101562 "/>
<path fill-rule="evenodd" fill="rgb(100%, 100%, 100%)" fill-opacity="1" d="M 1607.171875 1180.101562 L 1622.871094 1215.421875 L 1661.320312 1219.441406 L 1632.578125 1245.289062 L 1640.640625 1283.101562 L 1607.171875 1263.75 L 1573.710938 1283.101562 L 1581.761719 1245.289062 L 1553.019531 1219.441406 L 1591.46875 1215.421875 L 1607.171875 1180.101562 "/>
</svg>
