<?xml version="1.0" encoding="UTF-8"?><svg id="Layer_1" xmlns="http://www.w3.org/2000/svg" viewBox="0 0 3074.94 1736.71"><defs><style>.cls-1{fill:#fff;}.cls-2{fill:#273571;}.cls-3{fill:#be3431;}.cls-4{fill:#29307a;}</style></defs><rect class="cls-4" x="0" width="3074.94" height="1736.71"/><rect class="cls-1" x=".06" width="1554.3" height="771.58"/><rect class="cls-3" x="672.65" width="190.5" height="772.09"/><rect class="cls-3" x=".21" y="308.79" width="1554.79" height="163.63"/><polygon class="cls-3" points="1554.07 720.24 1554.07 656.45 1241.34 522.87 1100.91 522.87 1554.07 720.24"/><polygon class="cls-3" points=".21 60.48 .21 121.67 300.18 249.79 434.88 249.79 .21 60.48"/><polygon class="cls-2" points="607.86 .17 607.86 229.66 75.59 .17 607.86 .17"/><polygon class="cls-4" points="924.5 .17 924.5 229.66 1472.67 .17 924.5 .17"/><polygon class="cls-4" points=".21 251.92 223.7 251.92 .21 155.14 .21 251.92"/><polygon class="cls-3" points="1098.7 247.53 1554.59 56.84 1554.59 .17 953.09 248.28 1098.7 247.53"/><polygon class="cls-3" points="455.95 524.2 .06 714.89 .06 771.56 601.55 523.45 455.95 524.2"/><polygon class="cls-4" points="1554.59 145.83 1554.59 252.02 1309.21 252.02 1554.59 145.83"/><polygon class="cls-4" points="1554.59 627.88 1554.59 521.69 1309.21 521.69 1554.59 627.88"/><polygon class="cls-4" points="2.43 632.54 2.43 526.35 247.81 526.35 2.43 632.54"/><polygon class="cls-4" points="607.86 772.37 607.86 542.89 60.25 772.37 607.86 772.37"/><polygon class="cls-4" points="924.5 772.37 924.5 542.89 1456.77 772.37 924.5 772.37"/><polygon class="cls-1" points="783 1126.37 831.07 1244.31 956.22 1207.18 891 1317.12 999 1388.76 869.61 1407.91 879.13 1534.37 783 1448.31 686.87 1534.37 696.39 1407.91 567 1388.76 675 1317.12 609.78 1207.18 734.94 1244.31 783 1126.37"/><polygon class="cls-1" points="2326.5 1359.37 2349.53 1419.32 2409.5 1400.45 2378.25 1456.33 2430 1492.75 2368 1502.48 2372.57 1566.76 2326.5 1523.02 2280.44 1566.76 2285 1502.48 2223 1492.75 2274.75 1456.33 2243.5 1400.45 2303.47 1419.32 2326.5 1359.37"/><polygon class="cls-1" points="1937 568.37 1959.92 627.46 2019.6 608.85 1988.5 663.93 2040 699.82 1978.3 709.41 1982.84 772.76 1937 729.65 1891.16 772.76 1895.7 709.41 1834 699.82 1885.5 663.93 1854.4 608.85 1914.08 627.46 1937 568.37"/><polygon class="cls-1" points="2320 156.37 2342.92 215.46 2402.6 196.85 2371.5 251.93 2423 287.82 2361.3 297.41 2365.84 360.76 2320 317.65 2274.16 360.76 2278.7 297.41 2217 287.82 2268.5 251.93 2237.4 196.85 2297.08 215.46 2320 156.37"/><polygon class="cls-1" points="2671 467.37 2693.92 526.46 2753.6 507.85 2722.5 562.93 2774 598.82 2712.3 608.41 2716.84 671.76 2671 628.65 2625.16 671.76 2629.7 608.41 2568 598.82 2619.5 562.93 2588.4 507.85 2648.08 526.46 2671 467.37"/><polygon class="cls-1" points="2477.06 771.34 2491.89 815.79 2538.75 816.16 2501.06 843.99 2515.18 888.67 2477.06 861.43 2438.94 888.67 2453.07 843.99 2415.38 816.16 2462.23 815.79 2477.06 771.34"/></svg>