<?xml version="1.0" encoding="UTF-8"?>
<svg xmlns="http://www.w3.org/2000/svg" xmlns:xlink="http://www.w3.org/1999/xlink" width="3672" height="1825" viewBox="0 0 3672 1825">
<path fill-rule="nonzero" fill="rgb(100%, 0%, 0%)" fill-opacity="1" d="M 2760 1824.710938 L 2760 0.710938 C 3064 0.710938 3368 0.710938 3672 0.710938 C 3672 608.710938 3672 1216.710938 3672 1824.710938 L 2760 1824.710938 "/>
<path fill-rule="nonzero" fill="rgb(100%, 0%, 0%)" fill-opacity="1" d="M 0 1824.710938 L 912 1824.710938 L 912 0.710938 L 0 0.710938 Z M 0 1824.710938 "/>
<path fill-rule="nonzero" fill="rgb(100%, 0%, 0%)" fill-opacity="1" d="M 1825.429688 180.371094 C 1825.160156 180.371094 1824.910156 180.519531 1824.78125 180.761719 L 1695.378906 417.039062 L 1553.140625 357.941406 L 1553.128906 357.941406 C 1553.101562 357.929688 1553.070312 357.910156 1553.039062 357.898438 L 1553.03125 357.898438 L 1553.03125 357.890625 L 1553.019531 357.890625 L 1553.03125 357.890625 C 1552.941406 357.859375 1552.859375 357.839844 1552.769531 357.839844 C 1552.738281 357.839844 1552.710938 357.851562 1552.679688 357.851562 C 1552.308594 357.890625 1552.03125 358.210938 1552.03125 358.578125 C 1552.03125 358.621094 1552.03125 358.671875 1552.039062 358.710938 L 1640.210938 856.628906 L 1441.191406 582.75 C 1441.058594 582.558594 1440.828125 582.441406 1440.601562 582.441406 C 1440.558594 582.441406 1440.53125 582.441406 1440.5 582.449219 C 1440.230469 582.480469 1440 582.671875 1439.910156 582.921875 L 1390.660156 714.570312 L 1147.601562 635.351562 C 1147.53125 635.328125 1147.449219 635.320312 1147.371094 635.320312 C 1147.179688 635.320312 1146.988281 635.390625 1146.851562 635.53125 C 1146.648438 635.730469 1146.578125 636.019531 1146.671875 636.28125 L 1225.441406 878.996094 L 1097.191406 928.929688 C 1096.941406 929.027344 1096.761719 929.257812 1096.730469 929.527344 C 1096.691406 929.796875 1096.808594 930.0625 1097.03125 930.21875 L 1515.308594 1231.15625 L 1467.199219 1419.761719 C 1467.148438 1419.984375 1467.191406 1420.21875 1467.339844 1420.398438 C 1467.46875 1420.566406 1467.660156 1420.671875 1467.878906 1420.683594 L 1467.859375 1420.683594 C 1467.878906 1420.6875 1467.898438 1420.6875 1467.921875 1420.6875 C 1467.96875 1420.6875 1468.03125 1420.679688 1468.078125 1420.667969 L 1468.070312 1420.667969 L 1809.890625 1346.851562 L 1798.308594 1664.398438 C 1798.300781 1664.597656 1798.378906 1664.792969 1798.519531 1664.9375 C 1798.648438 1665.078125 1798.839844 1665.164062 1799.050781 1665.164062 C 1799.058594 1665.164062 1799.070312 1665.164062 1799.078125 1665.164062 L 1799.070312 1665.164062 L 1862.261719 1665.109375 C 1862.671875 1665.109375 1863 1664.777344 1863 1664.367188 L 1863 1664.335938 L 1849.171875 1346.730469 L 2191.160156 1418.832031 C 2191.210938 1418.84375 2191.261719 1418.847656 2191.308594 1418.847656 C 2191.480469 1418.847656 2191.640625 1418.792969 2191.769531 1418.683594 C 2191.949219 1418.542969 2192.050781 1418.332031 2192.050781 1418.109375 C 2192.050781 1418.046875 2192.039062 1417.984375 2192.019531 1417.921875 L 2142.429688 1227.457031 L 2559.328125 925 C 2559.550781 924.839844 2559.671875 924.570312 2559.628906 924.300781 C 2559.589844 924.03125 2559.410156 923.804688 2559.160156 923.707031 L 2429.300781 875.296875 L 2506.980469 631.210938 C 2507.070312 630.941406 2507 630.648438 2506.800781 630.449219 C 2506.660156 630.320312 2506.46875 630.238281 2506.28125 630.238281 C 2506.199219 630.238281 2506.128906 630.25 2506.050781 630.28125 L 2263.339844 711.039062 L 2213.359375 579.96875 C 2213.269531 579.710938 2213.039062 579.53125 2212.769531 579.5 C 2212.738281 579.5 2212.710938 579.5 2212.671875 579.5 C 2212.441406 579.5 2212.21875 579.609375 2212.070312 579.800781 L 2014.589844 854.480469 L 2099.769531 356.710938 C 2099.808594 356.441406 2099.710938 356.171875 2099.488281 356 C 2099.359375 355.898438 2099.199219 355.839844 2099.039062 355.839844 C 2098.941406 355.839844 2098.839844 355.859375 2098.75 355.898438 L 1956.730469 416.75 L 1826.070312 180.75 C 1825.941406 180.519531 1825.691406 180.371094 1825.429688 180.371094 Z M 1825.429688 180.371094 "/>
<path fill-rule="nonzero" fill="rgb(100%, 100%, 100%)" fill-opacity="1" d="M 2760 936.714844 L 2543.191406 936.714844 L 2142.429688 1227.457031 L 2166.710938 1320.714844 L 2760 1320.714844 Z M 912 0.710938 L 912 936.710938 L 1106.058594 936.714844 L 1097.03125 930.21875 C 1096.808594 930.0625 1096.691406 929.796875 1096.730469 929.527344 C 1096.761719 929.257812 1096.941406 929.027344 1097.191406 928.929688 L 1225.441406 878.996094 L 1146.671875 636.28125 C 1146.578125 636.019531 1146.648438 635.730469 1146.851562 635.53125 C 1146.988281 635.390625 1147.179688 635.320312 1147.371094 635.320312 C 1147.449219 635.320312 1147.53125 635.328125 1147.601562 635.351562 L 1390.660156 714.570312 L 1439.910156 582.921875 C 1440 582.671875 1440.230469 582.480469 1440.5 582.449219 C 1440.53125 582.441406 1440.558594 582.441406 1440.601562 582.441406 C 1440.828125 582.441406 1441.058594 582.558594 1441.191406 582.75 L 1640.210938 856.628906 L 1552.039062 358.710938 C 1552.03125 358.671875 1552.03125 358.621094 1552.03125 358.578125 C 1552.03125 358.210938 1552.308594 357.890625 1552.679688 357.851562 C 1552.710938 357.851562 1552.738281 357.839844 1552.769531 357.839844 C 1552.859375 357.839844 1552.941406 357.859375 1553.03125 357.890625 L 1553.039062 357.898438 C 1553.070312 357.910156 1553.101562 357.929688 1553.128906 357.941406 L 1553.140625 357.941406 L 1695.378906 417.039062 L 1824.78125 180.761719 C 1824.910156 180.519531 1825.160156 180.371094 1825.429688 180.371094 C 1825.691406 180.371094 1825.941406 180.519531 1826.070312 180.75 L 1956.730469 416.75 L 2098.75 355.898438 C 2098.839844 355.859375 2098.941406 355.839844 2099.039062 355.839844 C 2099.199219 355.839844 2099.359375 355.898438 2099.488281 356 C 2099.710938 356.171875 2099.808594 356.441406 2099.769531 356.710938 L 2014.589844 854.480469 L 2212.070312 579.800781 C 2212.21875 579.609375 2212.441406 579.5 2212.671875 579.5 C 2212.710938 579.5 2212.738281 579.5 2212.769531 579.5 C 2213.039062 579.53125 2213.269531 579.710938 2213.359375 579.96875 L 2263.339844 711.039062 L 2506.050781 630.28125 C 2506.128906 630.25 2506.199219 630.238281 2506.28125 630.238281 C 2506.46875 630.238281 2506.660156 630.320312 2506.800781 630.449219 C 2507 630.648438 2507.070312 630.941406 2506.980469 631.210938 L 2429.300781 875.296875 L 2559.160156 923.707031 C 2559.410156 923.804688 2559.589844 924.03125 2559.628906 924.300781 C 2559.671875 924.570312 2559.550781 924.839844 2559.328125 925 L 2543.179688 936.714844 L 2760 936.714844 L 2760 0.710938 Z M 1106.058594 936.714844 L 912 936.714844 L 912 1320.710938 L 1492.460938 1320.714844 L 1515.308594 1231.15625 Z M 912 1320.710938 L 912 1824.710938 L 2760 1824.710938 L 2760 1320.714844 L 2166.710938 1320.714844 L 2192.019531 1417.921875 C 2192.039062 1417.984375 2192.050781 1418.046875 2192.050781 1418.109375 C 2192.050781 1418.332031 2191.949219 1418.542969 2191.769531 1418.683594 C 2191.640625 1418.792969 2191.480469 1418.847656 2191.308594 1418.847656 C 2191.261719 1418.847656 2191.210938 1418.84375 2191.160156 1418.832031 L 1849.171875 1346.730469 L 1863 1664.335938 L 1863 1664.367188 C 1863 1664.777344 1862.671875 1665.109375 1862.261719 1665.109375 L 1799.070312 1665.164062 L 1799.078125 1665.164062 C 1799.078125 1665.164062 1799.070312 1665.164062 1799.070312 1665.164062 C 1799.058594 1665.164062 1799.058594 1665.164062 1799.050781 1665.164062 C 1798.839844 1665.164062 1798.648438 1665.078125 1798.519531 1664.9375 C 1798.378906 1664.792969 1798.300781 1664.597656 1798.308594 1664.398438 L 1809.890625 1346.851562 L 1468.070312 1420.667969 C 1468.03125 1420.679688 1467.96875 1420.6875 1467.921875 1420.6875 C 1467.898438 1420.6875 1467.878906 1420.6875 1467.871094 1420.683594 L 1467.878906 1420.683594 C 1467.660156 1420.671875 1467.46875 1420.566406 1467.339844 1420.398438 C 1467.191406 1420.21875 1467.148438 1419.984375 1467.199219 1419.761719 L 1492.460938 1320.710938 Z M 912 1320.710938 "/>
</svg>
