<?xml version="1.0" encoding="UTF-8"?><svg id="_Ñëîé_1" xmlns="http://www.w3.org/2000/svg" viewBox="0 0 50 50"><defs><style>.cls-1{fill:#fff;}.cls-1,.cls-2,.cls-3,.cls-4,.cls-5,.cls-6,.cls-7,.cls-8,.cls-9,.cls-10,.cls-11,.cls-12,.cls-13,.cls-14,.cls-15,.cls-16,.cls-17,.cls-18,.cls-19,.cls-20,.cls-21,.cls-22{fill-rule:evenodd;}.cls-23{fill:#ebb087;}.cls-2{fill:#ff6b6b;}.cls-3{fill:#e3d9d9;}.cls-4{fill:#0040a3;}.cls-5{fill:#ffd400;}.cls-6{fill:#dea680;}.cls-7{fill:#ffc49c;}.cls-8{fill:#38ba24;}.cls-24{fill:#d48f61;}.cls-9{fill:#177d05;}.cls-10{fill:#fff200;}.cls-11{fill:#bd7345;}.cls-12{fill:#c77842;}.cls-13{fill:#0f54ba;}.cls-14{fill:#f2f2f2;}.cls-15{fill:#575757;}.cls-16{fill:#292929;}.cls-17{fill:#2b7df7;}.cls-18{fill:#21940d;}.cls-19{fill:#fffaa1;}.cls-20{fill:#ff1212;}.cls-21{fill:#e80505;}.cls-25{fill:#d9996e;}</style></defs><path class="cls-12" d="m11.41,41.12C1.08,35.72-2.42,25.63,3.11,16.73,9.4,6.99,20.76,4.15,32.72,6.72c4.52,1.07,8.26,2.87,11.08,5.99,1.5,1.95,2.27,3.41,1.27,5.64-.83,1.83-3.27,2.94-4.46,4.06-1.53,1.44-1.56,2.97-.7,4.02,1.27,1.54,3.98.24,5.99.13,3.19-.18,3.84,1.75,3.45,3.98-1.18,5.85-6.6,9.89-11.89,12.02-9.35,3.76-18.09,2.45-26.05-1.44Zm22.61-17.76c1.39-1.21,1.2-3.27-.43-4.61-1.63-1.34-4.08-1.45-5.47-.25s-1.2,3.27.43,4.61c1.63,1.34,4.08,1.45,5.47.25Z"/><path class="cls-6" d="m11.45,40.5C1.12,35.1-2.38,25.01,3.15,16.11,9.44,6.36,20.81,3.52,32.76,6.1c4.52,1.07,8.26,2.87,11.08,5.99,1.5,1.95,2.27,3.41,1.27,5.64-.83,1.83-3.27,2.94-4.46,4.06-1.53,1.44-1.56,2.97-.7,4.02,1.27,1.54,3.98.24,5.99.13,3.19-.18,3.84,1.75,3.45,3.98-1.18,5.85-6.6,9.89-11.89,12.02-9.35,3.76-18.09,2.45-26.05-1.44Zm22.57-17.6c1.39-1.21,1.2-3.27-.43-4.61-1.63-1.34-4.08-1.45-5.47-.25s-1.2,3.27.43,4.61,4.08,1.45,5.47.25Z"/><path class="cls-25" d="m18.22,12.03h0s.06-.02.08-.03c.07-.01.14-.02.21-.02.28-.02.57-.04.85-.05,1.19-.05,2.38-.08,3.57-.1,1.54-.03,3.08-.06,4.62-.08,2.6-.03,5.19-.05,7.79-.06.77,0,1.54,0,2.31,0,.59,0,1.18,0,1.76,0,.29,0,.58,0,.87.02.07,0,.15,0,.22.01.01,0,.06,0,.07.01,0,0-.01,0-.02,0-.02,0-.04,0-.06,0-.1,0-.19.01-.29.02-.35.02-.69.03-1.04.03-1.58.04-3.17.07-4.75.09-3.4.05-6.8.08-10.2.11-1.35.01-2.71.02-4.06.02-.41,0-.82,0-1.23,0-.15,0-.3,0-.45,0-.05,0-.1,0-.15,0-.03,0-.07,0-.1,0Z"/><path class="cls-25" d="m6.8,15.26s0-.01.01-.01c.02,0,.04-.01.06-.01.08-.01.16-.02.24-.03.12-.01.24-.02.36-.02.25-.02.5-.03.75-.04.67-.03,1.34-.04,2.01-.06,1.02-.02,2.03-.04,3.05-.06,1.94-.03,3.88-.04,5.81-.05.72,0,1.44,0,2.15,0,.46,0,.91,0,1.37,0,.68,0,1.37,0,2.05.02.15,0,.31,0,.46.02.04,0,.07,0,.11,0,0,0,.04,0,.04.01,0,0-.06.01-.07.01-.07,0-.14.01-.2.01-.27.02-.55.02-.82.03-.48.01-.96.02-1.44.03-.83.02-1.65.03-2.48.04-3.09.04-6.19.07-9.28.08-.94,0-1.89,0-2.83,0-.3,0-.61,0-.91,0-.09,0-.19,0-.28,0h-.1s-.04,0-.06,0Z"/><path class="cls-25" d="m30.5,9.49s0,0,0,0c0-.02.04-.03.05-.03.05-.02.11-.03.17-.04.11-.02.23-.03.34-.04.16-.02.32-.03.48-.04.45-.03.9-.04,1.35-.05.6-.01,1.21-.02,1.81,0,.34,0,.69.01,1.03.04.07,0,.13.01.2.02.01,0,.05.01.06.02,0,0-.01.01-.02.01-.02,0-.04.01-.06.01-.09.01-.18.02-.26.03-.18.01-.36.02-.54.03-.21.01-.42.02-.62.02-.67.02-1.34.03-2.01.04-.6,0-1.21,0-1.81,0-.04,0-.08,0-.12,0,0,0-.01,0-.02,0,0,0,0,0-.01,0Z"/><path class="cls-25" d="m20.36,18.97s0,0,0,0c0-.02.04-.03.06-.03.06-.02.13-.03.19-.04.11-.02.23-.03.35-.04.14-.01.29-.02.43-.03.55-.03,1.11-.04,1.66-.05.73-.01,1.47-.01,2.2,0,.21,0,.42,0,.63.02.16,0,.32.01.48.02.08,0,.16.01.24.02.02,0,.04,0,.06.01,0,0,.02,0,.02.01h0s-.08.03-.1.03c-.09.01-.18.02-.26.02-.44.03-.88.04-1.32.05-.47.01-.94.02-1.4.02-.53,0-1.05,0-1.58,0-.36,0-.73,0-1.09,0-.12,0-.24,0-.35,0-.04,0-.09,0-.13,0-.03,0-.05,0-.08,0Z"/><path class="cls-25" d="m9.75,11.08s0,0,0,0c0-.02.05-.03.07-.04.08-.02.17-.04.25-.05.31-.04.62-.07.93-.09.58-.04,1.17-.06,1.75-.08.77-.02,1.54-.03,2.3-.03.29,0,.59,0,.88.02.07,0,.15,0,.23.02.01,0,.05,0,.06.02h0s-.03.01-.04.02c-.03,0-.06.01-.08.02-.11.01-.22.02-.34.03-.45.03-.9.05-1.35.07-1.01.04-2.03.06-3.04.08-.36,0-.71,0-1.07.01-.11,0-.21,0-.32,0-.08,0-.15,0-.23,0Z"/><path class="cls-25" d="m15.46,8.51h0s.04-.02.05-.03c.03,0,.07-.01.11-.02.14-.02.27-.03.41-.04.52-.04,1.04-.05,1.56-.07.39-.01.78-.02,1.17-.03.57-.01,1.13-.02,1.7-.03,1.28-.01,2.56-.02,3.84,0,.43,0,.86,0,1.29.01.27,0,.55.01.82.02.16,0,.32.01.48.02.05,0,.09,0,.14.01.01,0,.04,0,.05.01,0,0,0,0,0,0-.02.01-.07.02-.09.02-.06,0-.12.01-.17.01-.22.01-.45.02-.68.03-.81.03-1.62.04-2.44.05-.52,0-1.03.01-1.54.02-1.3.01-2.6.02-3.9.02-.6,0-1.19,0-1.79,0-.23,0-.47,0-.7,0-.06,0-.12,0-.19,0-.03,0-.06,0-.08,0-.01,0-.02,0-.04,0Z"/><path class="cls-25" d="m6.31,19.31s0,0,0,0c0-.02.04-.03.06-.04.06-.02.12-.03.18-.04.12-.02.25-.03.37-.04.17-.01.34-.02.51-.03.22-.01.45-.02.67-.03.42-.01.84-.02,1.26-.02.57,0,1.14,0,1.71.02.18,0,.35.01.53.02.1,0,.2.01.3.02.07,0,.14.01.21.02.01,0,.05,0,.06.02h0s-.02.01-.03.02c-.02,0-.05.01-.08.01-.1.01-.2.02-.3.03-.16.01-.33.02-.49.02-.26.01-.52.02-.78.02-.87.02-1.74.03-2.6.02-.33,0-.65,0-.98,0-.12,0-.23,0-.35,0-.05,0-.09,0-.14,0-.02,0-.04,0-.07,0,0,0-.01,0-.02,0Z"/><path class="cls-24" d="m11.64,21.81s.01-.01.02-.01c.02,0,.04-.01.07-.02.09-.02.18-.03.27-.03.17-.02.33-.03.5-.04.3-.02.6-.03.9-.05.35-.02.7-.03,1.05-.04.65-.02,1.3-.04,1.95-.06,1.38-.03,2.76-.06,4.14-.07,1.11-.01,2.23-.02,3.34-.02.32,0,.63,0,.95,0,.18,0,.36,0,.54.01.12,0,.24,0,.36.01.02,0,.05,0,.07,0,0,0,.02,0,.03,0,0,0-.03.01-.04.01-.04,0-.08.01-.11.01-.2.02-.4.03-.59.04-.4.02-.8.03-1.2.04-.38.01-.76.02-1.15.03-.73.02-1.46.03-2.19.05-1.68.03-3.35.06-5.03.08-.84.01-1.68.02-2.52.02-.3,0-.6,0-.9,0-.1,0-.19,0-.29,0h-.1s-.03,0-.05,0Z"/><path class="cls-25" d="m2.79,24.92s0-.01.01-.01c.02,0,.04-.01.05-.02,0,0,.02,0,.02,0,0,0,.02,0,.02,0,.16-.03.33-.04.5-.05.38-.03.76-.05,1.13-.06.46-.02.92-.04,1.39-.05.54-.02,1.08-.03,1.62-.05.74-.02,1.49-.03,2.23-.05,1.85-.03,3.71-.05,5.56-.04.42,0,.84,0,1.26.02.1,0,.21,0,.31.02.02,0,.04,0,.06,0,0,0,.02,0,.02,0,0,0-.02,0-.02.01-.03,0-.06,0-.09.01-.01,0-.02,0-.03,0-.02,0-.03,0-.05,0-.21.02-.43.03-.64.04-.8.03-1.61.06-2.41.08-2.57.06-5.14.1-7.71.13-.76,0-1.52.02-2.28.02-.23,0-.45,0-.68,0h-.2s-.04,0-.06,0c0,0-.02,0-.03,0Z"/><path class="cls-25" d="m36.34,17.58s0,0,0,0c0-.02.04-.03.06-.04.06-.02.12-.03.18-.04.11-.02.22-.03.34-.04.12-.01.24-.02.36-.03.58-.03,1.17-.05,1.76-.06.62,0,1.24-.01,1.87,0,.24,0,.48.01.72.02.15,0,.31.01.46.02.08,0,.16.01.23.02.02,0,.04,0,.06.01,0,0,.02,0,.02.01,0,0,0,0,0,0,0,0-.02.01-.03.01-.03,0-.05.01-.08.01-.1.01-.21.02-.31.03-.17.01-.34.02-.51.02-.27.01-.54.02-.81.02-.95.02-1.9.03-2.85.02-.31,0-.61,0-.92,0-.12,0-.25,0-.37,0-.06,0-.11,0-.17,0Z"/><path class="cls-25" d="m22.01,26.2s0,0,0,0c.01-.02.06-.03.09-.04.09-.02.19-.03.29-.04.37-.04.75-.06,1.12-.07.62-.02,1.23-.04,1.85-.04.91-.01,1.82,0,2.73,0,.19,0,.38,0,.57.01.2,0,.4.01.6.03.09,0,.19.01.28.02.02,0,.04,0,.06.01,0,0,.01,0,.02.01,0,0-.02.01-.03.01-.03,0-.06.01-.09.01-.12.01-.24.02-.36.03-.48.03-.95.04-1.43.05-.63.01-1.26.02-1.88.02-.58,0-1.15,0-1.73,0-.45,0-.9,0-1.35,0-.17,0-.33,0-.5,0-.05,0-.1,0-.15,0-.03,0-.06,0-.08,0Z"/><path class="cls-25" d="m32.22,24.13s0,0,0,0c0-.02.02-.03.04-.04.04-.02.1-.04.14-.04.19-.04.38-.06.57-.07.31-.02.63-.04.95-.04.46-.01.92,0,1.37,0,.19,0,.38.02.57.04.01,0,.02,0,.03,0,.01,0,.02,0,.03,0,.03,0,.06,0,.09.02,0,0,.02,0,.03.02,0,0-.02.02-.03.02-.03.01-.06.01-.09.02-.01,0-.02,0-.03,0-.01,0-.02,0-.03,0-.01,0-.03,0-.04,0-.12.01-.25.02-.37.03-.11,0-.22.01-.33.02-.3.01-.6.02-.9.02-.35,0-.7,0-1.05,0-.21,0-.42,0-.63,0-.07,0-.15,0-.22,0-.02,0-.04,0-.06,0,0,0-.02,0-.02,0Z"/><path class="cls-25" d="m9.47,35.45s0,0,0,0c0-.02.04-.03.06-.03.06-.02.13-.03.19-.04.11-.02.23-.03.35-.04.14-.01.29-.02.43-.03.55-.03,1.11-.05,1.66-.05.73-.01,1.47-.01,2.2,0,.21,0,.42.01.62.02.16,0,.32.01.48.02.08,0,.16.01.25.02.02,0,.04,0,.06.01,0,0,.02,0,.02.01h0s-.08.03-.1.03c-.09.01-.18.02-.26.02-.44.03-.88.04-1.32.05-.47.01-.94.02-1.4.02-.53,0-1.05,0-1.58,0-.36,0-.73,0-1.09,0-.12,0-.24,0-.35,0-.04,0-.09,0-.13,0-.03,0-.05,0-.08,0Z"/><path class="cls-25" d="m4.33,30.09s0,0,0,0c0-.02.04-.03.06-.03.06-.02.12-.03.18-.04.12-.02.24-.03.37-.04.17-.01.34-.03.51-.03.22-.01.45-.02.67-.03.42-.01.84-.02,1.26-.02.57,0,1.14,0,1.71.01.18,0,.35.01.53.02.1,0,.2.01.3.02.07,0,.14.01.21.02.01,0,.05,0,.06.02,0,0,0,0,0,0,0,0-.02.01-.03.01-.03,0-.05.01-.08.01-.1.01-.2.02-.3.03-.16.01-.33.02-.49.03-.26.01-.52.02-.78.02-.87.02-1.74.03-2.6.02-.33,0-.65,0-.98,0-.12,0-.23,0-.35,0-.05,0-.09,0-.14,0-.02,0-.04,0-.07,0,0,0-.01,0-.02,0Z"/><path class="cls-25" d="m15.09,30.09s0-.01.01-.01c.01,0,.04-.01.05-.02,0,0,.02,0,.03,0,0,0,.01,0,.02,0,.16-.03.33-.04.5-.05.38-.03.76-.05,1.14-.06.46-.02.92-.04,1.38-.05.54-.02,1.08-.03,1.63-.05.74-.02,1.48-.03,2.23-.04,1.85-.03,3.71-.05,5.56-.05.42,0,.84,0,1.26.02.1,0,.21,0,.31.01.02,0,.04,0,.06,0,0,0,.02,0,.02,0,0,0-.02,0-.02.01-.03,0-.06,0-.09.01,0,0-.02,0-.03,0-.02,0-.03,0-.05,0-.21.02-.42.03-.64.04-.8.03-1.61.06-2.41.08-2.57.06-5.14.1-7.71.13-.76,0-1.52.02-2.28.02-.23,0-.46,0-.68,0h-.2s-.04,0-.06,0c0,0-.02,0-.03,0Z"/><path class="cls-25" d="m31.08,36.63s0,0,0,0c.01-.02.06-.03.08-.04.09-.02.2-.03.29-.04.37-.04.75-.06,1.12-.07.62-.02,1.23-.04,1.85-.04.91-.01,1.82,0,2.73,0,.19,0,.38,0,.57.01.2,0,.4.01.6.03.09,0,.19.01.28.02.02,0,.04,0,.06.01,0,0,.01,0,.02.01,0,0-.02.01-.03.01-.03,0-.06.01-.09.01-.12.01-.24.02-.36.03-.48.02-.95.04-1.43.05-.63.01-1.26.02-1.88.02-.58,0-1.15,0-1.73,0-.45,0-.9,0-1.35,0-.17,0-.34,0-.5,0-.05,0-.1,0-.15,0-.03,0-.06,0-.08,0Z"/><path class="cls-25" d="m27.57,28.82s0,0,0,0c.01-.02.06-.03.08-.04.09-.02.2-.03.29-.04.37-.04.75-.06,1.12-.07.62-.02,1.23-.04,1.85-.04.91,0,1.82,0,2.73,0,.19,0,.38,0,.57.01.2,0,.4.01.6.03.09,0,.19.01.28.02.02,0,.04,0,.06.01,0,0,.01,0,.02.01,0,0-.02.01-.03.01-.03,0-.06.01-.09.01-.12.01-.24.02-.36.03-.48.03-.95.04-1.43.05-.63.01-1.26.02-1.88.02-.58,0-1.15,0-1.73,0-.45,0-.9,0-1.35,0-.17,0-.34,0-.5,0-.05,0-.1,0-.15,0-.03,0-.06,0-.08,0Z"/><path class="cls-25" d="m39.82,30.71s0,0,0,0c0-.02.04-.03.06-.03.06-.02.13-.03.19-.04.11-.02.23-.03.35-.04.14-.01.29-.02.43-.03.55-.03,1.11-.05,1.66-.05.73-.01,1.47-.01,2.2,0,.21,0,.42,0,.62.02.16,0,.32.01.48.02.08,0,.16.01.25.02.02,0,.04,0,.06.01,0,0,.02,0,.02.01h0s-.08.03-.1.03c-.09.01-.18.02-.26.02-.44.03-.88.04-1.32.05-.47.01-.94.02-1.4.02-.53,0-1.05,0-1.58,0-.36,0-.73,0-1.09,0-.12,0-.24,0-.35,0-.04,0-.09,0-.13,0-.03,0-.05,0-.08,0Z"/><path class="cls-25" d="m29.78,33.45h0s.04-.02.06-.03c.03,0,.07-.02.11-.02.14-.02.28-.03.42-.04.12,0,.24-.02.36-.02.41-.02.82-.03,1.23-.04.4-.01.8-.02,1.19-.03.58-.01,1.16-.02,1.73-.02.84,0,1.69,0,2.53,0,.46,0,.92,0,1.38,0,.44,0,.88.01,1.31.02.28,0,.56.01.83.02.16,0,.33.01.49.02.05,0,.09,0,.14.01.01,0,.04,0,.05.01,0,.01-.04.01-.06.02-.06,0-.12.01-.17.02-.22.02-.44.02-.65.03-.37.01-.74.02-1.12.03-.44,0-.88.01-1.32.02-1.91.02-3.81.03-5.72.02-.6,0-1.2,0-1.81,0-.22,0-.43,0-.64,0-.08,0-.15,0-.23,0-.03,0-.06,0-.09,0-.01,0-.02,0-.04,0Z"/><path class="cls-25" d="m14.34,27.79s0,0,0,0c0-.02.02-.03.03-.03.04-.02.08-.03.12-.04.02,0,.03,0,.05-.01.09-.02.19-.03.28-.04.13-.02.26-.03.4-.04.37-.02.74-.04,1.12-.04.38,0,.77,0,1.15.02.14,0,.29.02.43.04,0,0,.02,0,.03,0,0,0,.01,0,.02,0,0,0,.01,0,.02,0,.01,0,.07.01.07.03h0s-.05.03-.06.03c-.06.01-.12.02-.18.03-.23.03-.47.04-.7.05-.31.01-.62.02-.93.02-.34,0-.68,0-1.02,0-.19,0-.39,0-.58,0-.05,0-.11,0-.16,0-.01,0-.02,0-.04,0,0,0-.02,0-.02,0Z"/><path class="cls-25" d="m18.77,41.36s0,0,0,0c0-.01.03-.01.04-.02.04-.01.09-.02.13-.02.17-.02.34-.03.51-.04.33-.02.67-.03,1-.04.45-.01.89-.02,1.34-.03.59-.01,1.18-.02,1.76-.03,1.19-.01,2.38-.02,3.57-.02.73,0,1.46,0,2.18,0,.85,0,1.69,0,2.54.02.73,0,1.47.02,2.2.04.2,0,.39.01.59.02.05,0,.09,0,.14.01,0,0,.04,0,.05.01,0,0-.03.01-.04.01-.05,0-.1.01-.15.01-.21.01-.41.02-.62.03-.07,0-.15,0-.22,0-1.14.03-2.28.04-3.43.05-1.28.01-2.56.02-3.84.02-1.41,0-2.82,0-4.23,0-.75,0-1.51,0-2.26,0-.27,0-.55,0-.82,0-.1,0-.19,0-.29,0-.03,0-.06,0-.09,0-.02,0-.04,0-.05,0Z"/><path class="cls-25" d="m19.38,37.38s0,0,0,0c.01-.02.05-.03.07-.03.08-.02.16-.03.24-.04.12-.02.25-.03.38-.03.2-.01.4-.03.6-.03.82-.04,1.65-.05,2.47-.06.75,0,1.49,0,2.24,0,.45,0,.9.02,1.34.04.12,0,.23.01.35.03.02,0,.05,0,.07.01,0,0,.03,0,.03.01,0,0-.02.01-.03.01-.03,0-.06.01-.09.01-.12.01-.25.02-.37.03-.26.01-.52.02-.78.03-.31,0-.63.02-.94.02-1.23.02-2.47.03-3.7.02-.41,0-.81,0-1.22,0-.14,0-.28,0-.42,0-.05,0-.1,0-.15,0-.03,0-.06,0-.08,0Z"/><path class="cls-23" d="m21.21,10.97s0,0,0,0c.01-.02.06-.03.08-.04.09-.02.19-.03.29-.04.37-.04.75-.06,1.12-.07.62-.02,1.23-.04,1.85-.04.91-.01,1.82,0,2.73,0,.19,0,.38,0,.57.01.2,0,.4.01.6.03.09,0,.19.01.28.02.02,0,.04,0,.06.01,0,0,.01,0,.02.01,0,0-.02.01-.03.01-.03,0-.06.01-.09.01-.12.01-.24.02-.36.03-.48.02-.95.04-1.43.05-.63.01-1.26.02-1.88.02-.58,0-1.15,0-1.73,0-.45,0-.9,0-1.35,0-.17,0-.34,0-.5,0-.05,0-.1,0-.15,0-.03,0-.06,0-.08,0Z"/><path class="cls-23" d="m30.48,26.79s0,0,0,0c.01-.02.06-.03.08-.04.09-.02.2-.03.29-.04.37-.04.75-.06,1.12-.07.62-.02,1.23-.04,1.85-.04.91-.01,1.82,0,2.73,0,.19,0,.38,0,.57.01.2,0,.4.01.6.03.09,0,.19.01.28.02.02,0,.04,0,.06.01,0,0,.01,0,.02,0,0,.01-.02.01-.03.01-.03,0-.06.01-.09.01-.12.01-.24.02-.36.03-.48.02-.95.04-1.43.05-.63.01-1.26.02-1.88.02-.58,0-1.15,0-1.73,0-.45,0-.9,0-1.35,0-.17,0-.34,0-.5,0-.05,0-.1,0-.15,0-.03,0-.06,0-.08,0Z"/><path class="cls-23" d="m7.61,33.8s.01-.01.01-.01c.02,0,.04-.01.06-.02.1-.02.2-.03.3-.03.24-.02.48-.03.72-.04.27-.01.55-.02.82-.03,1.22-.03,2.43-.05,3.65-.06,1.52-.01,3.04-.02,4.56-.01.54,0,1.07,0,1.61,0,.43,0,.86,0,1.3.01.53,0,1.05.02,1.58.03.15,0,.3,0,.45.02.03,0,.06,0,.08,0,0,0,.03,0,.03,0h0s-.05.01-.06.01c-.06,0-.12.01-.18.01-.12,0-.24.01-.36.02-.15,0-.3.01-.45.01-1.04.03-2.09.04-3.13.05-2.51.02-5.01.03-7.52.02-.78,0-1.56,0-2.33,0-.25,0-.51,0-.76,0-.08,0-.17,0-.25,0-.03,0-.05,0-.08,0-.01,0-.03,0-.04,0Z"/><path class="cls-23" d="m26.26,39.42s0,0,0,0c0-.02.04-.03.06-.03.06-.02.13-.03.2-.04.09-.01.18-.02.27-.03.16-.01.32-.02.48-.03.59-.03,1.18-.04,1.76-.04.75,0,1.5,0,2.25.03.21,0,.43.01.64.02.18,0,.35.02.53.03.06,0,.12.01.17.02.02,0,.04,0,.06,0,.01,0,.06,0,.07.02,0,0,0,0,0,0,0,0-.02.01-.04.01-.03,0-.06.01-.09.01-.11.01-.22.02-.34.02-.22.01-.44.02-.66.02-.25,0-.5.01-.75.01-1.02,0-2.04,0-3.05-.01-.34,0-.69-.01-1.03-.02-.1,0-.21,0-.31,0-.04,0-.09,0-.13,0-.03,0-.06,0-.08,0Z"/><path class="cls-23" d="m8.85,14.08s0,0,0,0c0-.02.04-.03.06-.03.06-.02.13-.03.2-.04.09-.01.18-.02.27-.03.16-.01.32-.02.48-.03.59-.03,1.18-.04,1.76-.04.75,0,1.5,0,2.25.03.21,0,.43.01.64.02.18,0,.35.02.53.03.06,0,.11.01.17.02.02,0,.04,0,.06,0,.01,0,.06,0,.07.02,0,0,0,0,0,0,0,0-.02.01-.04.01-.03,0-.06.01-.09.01-.11.01-.23.02-.34.02-.22.01-.44.02-.66.02-.25,0-.5,0-.75.01-1.02,0-2.04,0-3.05-.01-.34,0-.69-.01-1.03-.02-.1,0-.21,0-.31,0-.05,0-.09,0-.14,0-.03,0-.06,0-.08,0Z"/><path class="cls-23" d="m30.75,14.68s0,0,0,0c.01-.01.03-.02.05-.02.03,0,.07-.01.1-.02.12-.02.25-.03.37-.04.47-.03.93-.05,1.4-.06,1.03-.03,2.07-.03,3.11-.03.99,0,1.98,0,2.96.03.62.01,1.24.02,1.86.05.14,0,.28.02.41.03.03,0,.07,0,.1.01.01,0,.03,0,.04.01,0,.01-.03.01-.04.01-.04,0-.08.01-.12.01-.16.01-.33.02-.5.02-.69.02-1.39.03-2.08.03-.78,0-1.57,0-2.35,0-.95,0-1.9,0-2.85-.01-.53,0-1.06-.01-1.59-.02-.19,0-.38,0-.57-.01-.07,0-.14,0-.2,0-.03,0-.07,0-.11,0Z"/><path class="cls-23" d="m3.87,22.68s0,0,0,0c0-.02.04-.03.06-.03.06-.02.13-.03.2-.04.09-.01.18-.02.27-.03.16-.01.32-.02.48-.03.59-.03,1.18-.04,1.76-.04.75,0,1.5,0,2.25.03.21,0,.43.01.64.02.18,0,.35.02.53.03.06,0,.12.01.17.02.02,0,.04,0,.06,0,.01,0,.06,0,.07.02,0,0,0,0,0,0,0,0-.02.01-.04.01-.03,0-.06.01-.09.01-.11.01-.22.02-.34.02-.22.01-.44.02-.66.02-.25,0-.5,0-.75.01-1.02,0-2.03,0-3.05-.01-.34,0-.69-.01-1.03-.02-.1,0-.21,0-.31,0-.04,0-.09,0-.13,0-.03,0-.06,0-.08,0Z"/><path class="cls-23" d="m36.52,20.08s0,0,0-.01c.01-.04.08-.06.11-.07.11-.03.23-.05.34-.06.24-.02.48-.03.72-.03.27,0,.53,0,.8.03.09,0,.18.02.27.03.05,0,.11.01.16.03.03,0,.06.01.08.02.01,0,.03.01.03.02,0,.01-.02.02-.03.02-.03.01-.07.02-.1.02-.05,0-.11.01-.17.02-.09,0-.17.01-.26.02-.45.02-.91.01-1.36,0-.13,0-.27-.01-.4-.02-.04,0-.09,0-.13-.01,0,0-.02,0-.03,0,0,0-.02,0-.02,0Z"/><path class="cls-23" d="m15.17,39.25s0,0,0,0c0-.02.02-.02.04-.03.04-.02.08-.03.12-.03.09-.02.19-.03.29-.04.12-.01.25-.02.37-.03.43-.02.87-.03,1.31-.03.52,0,1.04,0,1.56.02.19,0,.38.02.57.03.12,0,.24.02.35.03.06,0,.12.01.19.03.01,0,.06.01.06.02,0,.01-.04.02-.05.02-.06.01-.13.02-.19.02-.11.01-.23.02-.34.02-.16,0-.32.01-.47.01-.41,0-.82.01-1.23.01-.48,0-.96,0-1.44-.01-.27,0-.53-.01-.8-.02-.08,0-.16,0-.23,0-.02,0-.05,0-.07,0,0,0-.01,0-.02,0,0,0,0,0-.01,0Z"/><path class="cls-23" d="m37.19,35.51s0,0,0,0c0-.02.02-.02.04-.03.04-.02.08-.03.12-.03.09-.02.19-.03.29-.04.12-.01.25-.02.37-.03.43-.02.87-.03,1.31-.03.52,0,1.04,0,1.56.02.19,0,.38.02.57.03.12,0,.24.02.35.03.06,0,.12.01.19.03.01,0,.06.01.06.02,0,.01-.04.02-.05.02-.06.01-.13.02-.19.02-.11.01-.23.02-.34.02-.16,0-.31.01-.47.01-.41,0-.82.01-1.23.01-.48,0-.96,0-1.44-.01-.27,0-.53-.01-.8-.02-.08,0-.15,0-.23,0-.02,0-.05,0-.07,0,0,0-.01,0-.02,0,0,0,0,0-.01,0Z"/><path class="cls-7" d="m11.49,40.53C3.78,36.51-.13,29.87.68,23.07,0,29.78,3.9,36.31,11.52,40.28c7.95,3.89,16.7,5.2,26.05,1.44,5.29-2.12,10.71-6.17,11.89-12.02.02-.11.03-.21.05-.32-.02.19-.04.38-.08.57-1.18,5.85-6.6,9.89-11.89,12.02-9.35,3.76-18.09,2.45-26.05-1.44Zm29.22-18.96c1.19-1.12,3.63-2.23,4.46-4.06.22-.49.35-.93.41-1.36-.04.5-.18,1.03-.44,1.61-.83,1.83-3.27,2.94-4.46,4.06-.74.7-1.13,1.41-1.24,2.09.04-.74.43-1.55,1.27-2.34Zm-7.11-3.25c-1.63-1.34-4.08-1.45-5.47-.25-.51.44-.8.99-.9,1.58.04-.68.35-1.33.92-1.83,1.39-1.2,3.84-1.09,5.47.25,1.04.85,1.49,2,1.33,3.03.06-.96-.4-1.99-1.35-2.78Z"/><path class="cls-11" d="m8.96,20.62c-1.11-.91-1.32-1.33-1.56-2.03-.46-1.19-.36-2.68.47-2.63.25-.02.6-.55.94-1.08.35-.65,1.4-1.3,2.59-1.47,2.01-.32,2.93.63,4.02,2.09,1.21,1.86.2,3.46-1.66,4.66-1.55,1.01-3.5,1.55-4.79.47Z"/><path class="cls-10" d="m8.7,20.09c-1.11-.91-1.32-1.33-1.56-2.03-.46-1.19-.36-2.68.47-2.64.25-.02.6-.55.94-1.08.35-.65,1.4-1.3,2.59-1.47,2.02-.32,2.93.63,4.02,2.09,1.21,1.86.2,3.46-1.66,4.67-1.55,1-3.5,1.55-4.79.47Z"/><path class="cls-19" d="m10.61,13.9c1.83-1.04,4.31.4,3.01,1.55-.33.3-1.29.03-2.16.46-.3.15-.94.55-1.15.59-1.98.34-.71-2.05.3-2.6Z"/><path class="cls-19" d="m12.85,16.38c-.51.11-1.32.32-.98.79.73,1.02,2.78-1.14,1.49-.9-.06.02-.36.08-.51.11Z"/><path class="cls-19" d="m8.22,18.12c.11.41.27.64.59,1.01.65.66,1.43.85,2.27.67.2-.04.34-.47-.03-.45-.81-.05-1.21-.06-1.83-.66-.27-.26-.71-1.95-1.32-2-.49-.05.28,1.33.31,1.44Z"/><path class="cls-5" d="m8.74,20.1c-1.11-.91-1.32-1.33-1.56-2.03-.16-.42-.26-.87-.27-1.29.04.3.12.61.23.9.24.71.45,1.12,1.56,2.03,1.29,1.08,3.24.54,4.79-.47,1.31-.85,2.2-1.9,2.18-3.09.24,1.36-.69,2.54-2.15,3.48-1.55,1-3.5,1.55-4.79.47Z"/><path class="cls-11" d="m18.18,14.05c-.82-1.18-.9-1.64-.94-2.39-.12-1.27.39-2.67,1.17-2.41.25.05.73-.36,1.2-.78.52-.53,1.71-.87,2.89-.71,2.02.25,2.65,1.41,3.29,3.11.65,2.12-.75,3.38-2.87,4.03-1.76.54-3.8.53-4.74-.86Z"/><path class="cls-14" d="m18.09,13.47c-.82-1.18-.9-1.64-.94-2.39-.12-1.27.39-2.67,1.17-2.41.25.05.73-.36,1.2-.78.52-.53,1.71-.86,2.89-.71,2.02.25,2.65,1.41,3.29,3.11.65,2.12-.75,3.38-2.87,4.03-1.76.54-3.8.53-4.74-.86Z"/><path class="cls-1" d="m21.61,8.05c2.04-.49,4.03,1.57,2.47,2.32-.4.19-1.25-.33-2.2-.15-.33.06-1.05.27-1.27.25-2-.21-.12-2.17,1-2.42Z"/><path class="cls-1" d="m23.09,11.04c-.52-.04-1.36-.06-1.16.49.43,1.18,2.98-.33,1.68-.46-.06,0-.37-.02-.52-.03Z"/><path class="cls-1" d="m18.16,11.45c0,.42.08.69.29,1.13.45.81,1.14,1.21,2,1.27.21.01.45-.36.1-.44-.76-.27-1.14-.39-1.58-1.14-.19-.32-.15-2.07-.72-2.29-.46-.18-.09,1.35-.09,1.47Z"/><path class="cls-3" d="m18.12,13.49c-.82-1.18-.9-1.64-.94-2.39-.04-.45,0-.91.09-1.31-.04.3-.05.62-.02.92.04.75.12,1.2.94,2.39.94,1.4,2.97,1.41,4.74.86,1.49-.46,2.63-1.22,2.95-2.37-.15,1.37-1.37,2.25-3.02,2.76-1.76.54-3.8.53-4.74-.86Z"/><path class="cls-11" d="m5.34,30.84c-1.11-.91-1.32-1.33-1.56-2.03-.46-1.19-.36-2.68.47-2.63.25-.02.6-.55.94-1.08.35-.65,1.4-1.3,2.59-1.47,2.02-.32,2.94.63,4.02,2.09,1.21,1.86.2,3.46-1.66,4.66-1.55,1.01-3.5,1.55-4.79.47Z"/><path class="cls-20" d="m5.09,30.31c-1.11-.91-1.32-1.33-1.56-2.03-.46-1.19-.36-2.68.47-2.64.25-.02.6-.55.94-1.08.35-.65,1.4-1.3,2.58-1.47,2.02-.32,2.94.63,4.02,2.09,1.21,1.86.2,3.46-1.65,4.67-1.55,1-3.5,1.55-4.79.47Z"/><path class="cls-2" d="m6.99,24.13c1.83-1.04,4.31.4,3.01,1.55-.34.3-1.29.03-2.16.46-.3.15-.94.55-1.15.59-1.98.34-.71-2.05.3-2.6Z"/><path class="cls-2" d="m9.23,26.6c-.51.11-1.32.32-.98.79.73,1.01,2.78-1.14,1.49-.9-.06.02-.36.08-.51.11Z"/><path class="cls-2" d="m4.61,28.35c.11.41.27.64.59,1.01.65.66,1.43.85,2.27.67.2-.04.34-.47-.03-.45-.81-.05-1.21-.06-1.83-.66-.27-.26-.71-1.95-1.32-2-.49-.05.28,1.33.32,1.44Z"/><path class="cls-21" d="m5.12,30.33c-1.11-.91-1.32-1.33-1.56-2.03-.16-.42-.26-.87-.27-1.29.04.3.12.61.24.9.24.71.45,1.12,1.56,2.03,1.29,1.08,3.24.53,4.79-.47,1.31-.85,2.2-1.9,2.18-3.09.24,1.36-.7,2.54-2.15,3.48-1.55,1-3.5,1.55-4.79.47Z"/><path class="cls-11" d="m13.16,38.72c-1.11-.91-1.32-1.33-1.56-2.03-.46-1.19-.36-2.68.47-2.64.25-.02.6-.55.94-1.08.35-.65,1.4-1.3,2.59-1.47,2.02-.32,2.93.63,4.02,2.09,1.21,1.86.2,3.46-1.66,4.67-1.55,1-3.5,1.55-4.79.47Z"/><path class="cls-18" d="m12.91,38.18c-1.11-.91-1.32-1.33-1.56-2.03-.46-1.19-.36-2.68.47-2.63.25-.02.6-.55.94-1.08.35-.65,1.4-1.3,2.59-1.47,2.02-.32,2.94.63,4.02,2.09,1.21,1.86.2,3.46-1.65,4.66-1.55,1.01-3.5,1.55-4.79.47Z"/><path class="cls-8" d="m14.81,32c1.83-1.04,4.31.4,3.01,1.55-.34.3-1.29.03-2.16.46-.3.15-.94.55-1.15.59-1.98.34-.71-2.05.3-2.6Z"/><path class="cls-8" d="m17.06,34.47c-.51.11-1.32.32-.98.79.73,1.02,2.78-1.14,1.49-.9-.06.02-.36.08-.51.11Z"/><path class="cls-8" d="m12.43,36.22c.11.41.27.64.59,1.01.65.66,1.43.85,2.27.67.2-.04.34-.47-.03-.45-.81-.05-1.21-.06-1.83-.66-.27-.26-.71-1.95-1.32-2-.49-.05.28,1.33.32,1.44Z"/><path class="cls-9" d="m12.95,38.2c-1.11-.91-1.32-1.33-1.56-2.03-.16-.42-.26-.87-.27-1.28.04.3.12.61.23.89.24.71.45,1.12,1.56,2.03,1.29,1.08,3.24.54,4.79-.47,1.31-.85,2.2-1.9,2.18-3.09.24,1.36-.7,2.54-2.15,3.48-1.55,1.01-3.5,1.55-4.79.47Z"/><path class="cls-11" d="m25.1,41.17c-1.11-.91-1.32-1.33-1.56-2.03-.46-1.19-.36-2.68.47-2.63.25-.02.6-.55.94-1.08.35-.65,1.4-1.3,2.59-1.47,2.01-.32,2.93.63,4.02,2.09,1.21,1.86.2,3.46-1.66,4.66-1.55,1.01-3.5,1.55-4.79.47Z"/><path class="cls-13" d="m24.85,40.64c-1.11-.91-1.32-1.33-1.56-2.03-.46-1.19-.36-2.68.47-2.63.25-.02.6-.55.94-1.08.35-.65,1.4-1.3,2.59-1.47,2.02-.32,2.94.63,4.02,2.09,1.21,1.86.2,3.46-1.66,4.66-1.55,1.01-3.5,1.55-4.79.47Z"/><path class="cls-17" d="m26.76,34.46c1.83-1.04,4.31.4,3.01,1.55-.33.3-1.29.03-2.16.46-.3.15-.94.55-1.15.59-1.98.34-.71-2.05.3-2.6Z"/><path class="cls-17" d="m29,36.93c-.51.11-1.32.32-.98.79.73,1.02,2.78-1.14,1.49-.9-.06.02-.36.08-.51.12Z"/><path class="cls-17" d="m24.37,38.68c.11.41.27.64.59,1.01.65.66,1.43.85,2.27.67.2-.04.34-.47-.03-.45-.81-.05-1.21-.06-1.83-.66-.27-.26-.71-1.95-1.32-2-.49-.05.28,1.33.32,1.44Z"/><path class="cls-4" d="m24.89,40.66c-1.11-.91-1.32-1.33-1.56-2.03-.16-.42-.26-.87-.27-1.28.04.3.12.6.23.89.24.71.45,1.12,1.56,2.03,1.29,1.08,3.24.54,4.79-.47,1.31-.85,2.2-1.9,2.18-3.09.24,1.36-.69,2.54-2.15,3.48-1.55,1.01-3.5,1.55-4.79.47Z"/><path class="cls-11" d="m36.26,37.27c-1.11-.91-1.32-1.33-1.56-2.03-.46-1.19-.36-2.68.47-2.63.25-.02.6-.55.94-1.08.35-.65,1.4-1.3,2.59-1.47,2.01-.32,2.93.63,4.02,2.09,1.21,1.86.2,3.46-1.66,4.66-1.55,1.01-3.5,1.55-4.79.47Z"/><path class="cls-16" d="m36,36.74c-1.11-.91-1.32-1.33-1.56-2.03-.46-1.19-.36-2.68.47-2.63.25-.02.6-.55.94-1.08.35-.65,1.4-1.3,2.59-1.47,2.02-.32,2.94.63,4.02,2.09,1.21,1.86.2,3.46-1.66,4.66-1.55,1.01-3.5,1.55-4.79.47Z"/><path class="cls-15" d="m37.91,30.56c1.83-1.04,4.31.4,3.01,1.55-.33.3-1.29.03-2.16.46-.3.15-.94.55-1.15.59-1.98.34-.71-2.05.3-2.6Z"/><path class="cls-15" d="m40.15,33.03c-.51.11-1.32.32-.98.79.73,1.02,2.78-1.14,1.49-.9-.06.02-.36.08-.51.12Z"/><path class="cls-15" d="m35.52,34.78c.11.41.27.64.59,1.01.65.66,1.43.85,2.27.67.2-.04.34-.47-.03-.45-.81-.05-1.21-.06-1.83-.66-.27-.26-.71-1.95-1.32-2-.49-.05.28,1.33.32,1.44Z"/><path class="cls-22" d="m36.04,36.75c-1.11-.91-1.32-1.33-1.56-2.03-.16-.42-.26-.87-.27-1.28.04.3.12.6.23.89.24.71.45,1.12,1.56,2.03,1.29,1.08,3.24.54,4.79-.47,1.31-.85,2.2-1.9,2.18-3.09.24,1.36-.69,2.54-2.15,3.48-1.55,1.01-3.5,1.55-4.79.47Z"/><path class="cls-23" d="m19.22,24.11s0,0,0,0c.01-.02.06-.03.08-.04.09-.02.2-.03.29-.04.37-.04.75-.06,1.12-.07.62-.02,1.23-.04,1.85-.04.91-.01,1.82,0,2.73,0,.19,0,.38,0,.57.01.2,0,.4.01.6.03.09,0,.19.01.28.02.02,0,.04,0,.06.01,0,0,.01,0,.02.01,0,0-.02.01-.03.01-.03,0-.06.01-.09.01-.12.01-.24.02-.36.03-.48.03-.95.04-1.43.05-.63.01-1.26.02-1.88.02-.58,0-1.15,0-1.73,0-.45,0-.9,0-1.35,0-.17,0-.34,0-.5,0-.05,0-.1,0-.15,0-.03,0-.06,0-.08,0Z"/><path class="cls-23" d="m17.71,16.84s0,0,0,0c0-.02.04-.03.06-.03.06-.02.13-.03.19-.04.12-.02.23-.03.35-.04.14-.01.29-.02.43-.03.55-.03,1.11-.05,1.66-.05.73-.01,1.46-.01,2.2,0,.21,0,.42,0,.63.02.16,0,.32.01.48.02.08,0,.16.01.24.02.02,0,.04,0,.06.01,0,0,.02,0,.02.01h0s-.08.03-.1.03c-.09.01-.18.02-.26.02-.44.03-.88.04-1.32.05-.47.01-.94.02-1.4.02-.53,0-1.05,0-1.58,0-.36,0-.73,0-1.09,0-.12,0-.24,0-.35,0-.04,0-.09,0-.13,0-.03,0-.05,0-.08,0Z"/><path class="cls-23" d="m43.8,28.5s0,0,0-.01c.02-.04.09-.06.13-.07.13-.04.27-.05.4-.07.32-.03.65-.05.97-.05.17,0,.34,0,.51,0,.14,0,.28,0,.43.01.1,0,.19.01.29.02.06,0,.12.01.19.02.03,0,.08.01.11.02.01,0,.03,0,.04.02,0,.02-.03.02-.05.03-.04.01-.09.02-.14.03-.09.01-.18.02-.27.03-.1,0-.21.01-.31.02-.47.02-.95.03-1.43.03-.18,0-.36,0-.54,0-.07,0-.14,0-.21,0-.03,0-.06,0-.09,0,0,0-.02,0-.03,0Z"/></svg>